<?xml version="1.0" encoding="utf-8"?>
<!-- Generator: Adobe Illustrator 16.0.0, SVG Export Plug-In . SVG Version: 6.00 Build 0)  -->
<!DOCTYPE svg PUBLIC "-//W3C//DTD SVG 1.1//EN" "http://www.w3.org/Graphics/SVG/1.1/DTD/svg11.dtd">
<svg version="1.1" id="Calque_1" xmlns="http://www.w3.org/2000/svg" xmlns:xlink="http://www.w3.org/1999/xlink" x="0px" y="0px"
	 width="425.938px" height="531px" viewBox="0 0 425.938 531" enable-background="new 0 0 425.938 531" xml:space="preserve">
<path fill="#FFFFFF" stroke="#000000" stroke-width="0.5943" stroke-miterlimit="10" d="M4.126,18.875c0,0-0.658-5.644,2.634-5.55
	c0,0,26.998-0.659,31.984-0.659s92.188-0.659,97.551-0.752c5.362-0.094,208.083-2.352,211.281-2.352
	c3.293,0,66.79-1.129,66.79-1.129s3.856-2.164,5.737-1.035c1.788,1.129,3.294,3.951,3.104,5.456
	c-0.282,1.505-0.376,3.198-0.282,4.327s2.069,100.938,1.977,106.3c0,5.362-0.095,11.477,0.188,17.873
	c0.188,6.397,0.188,94.823,0.283,100.655c0,5.832,0.281,61.052,0.376,66.037c0.188,4.984,0.188,94.635,0.188,99.338
	c-0.096,4.704-0.849,101.032-0.849,106.206c0,5.268,0.941,9.03-9.312,10.064c-10.254,1.034-47.506-2.352-75.915-1.788
	c-28.409,0.564-37.251,0.096-48.634,0.282c-11.384,0.282-43.743,0.564-51.362,0.282c-7.62-0.282-99.62-0.564-116.931,0.095
	c-17.215,0.658-58.981,0-69.424,0.848c-10.441,0.847-30.384,0.47-36.311,0.47c-5.926,0-11.477,0.659-12.417-1.881
	c-1.035-2.54-0.659-29.444-0.659-35.371s-0.094-109.403,0-112.508s0.848-101.126,0.848-107.335
	C4.973,260.73,4.126,18.875,4.126,18.875z M18.613,48.603c0.281,2.728,0.376,140.729,0.281,150.324
	c-0.188,9.595,0.564,217.961,0.472,219.936c-0.095,1.977,1.786,1.129,2.634,1.317c0.848,0.094,177.323,0.094,188.046,0.188
	c10.724,0.095,193.22-0.095,198.677-0.377c5.455-0.281,3.011-1.223,3.292-4.515c0.282-3.387-3.292-362.641-3.387-365.463
	c-0.094-2.822,0.282-6.773,0.659-8.937c0.376-2.164-0.564-1.787-3.104-1.693c-2.54,0.188-381.737,5.833-385.688,5.738
	C20.4,45.122,18.331,45.874,18.613,48.603z"/>
</svg>
