<svg id="Calque_1" data-name="Calque 1" xmlns="http://www.w3.org/2000/svg" viewBox="0 0 841.89 595.28"><title>Plan de travail 1</title><path d="M541.78,385.9l.11,1.55C541.86,386.72,541.82,386.25,541.78,385.9Z"/><path d="M541.81,374.71l-.2-.28C541.72,375,541.8,375.16,541.81,374.71Z"/><path d="M528.72,296.62c-.67-.1-1.62-.2-3-.28Z"/><path d="M542.24,447l.44,1.81C542.68,446,542.46,447.26,542.24,447Z"/><path d="M372.64,513.93l-.5-.06C372.09,513.93,372.32,513.94,372.64,513.93Z"/><path d="M336.16,298.17h.12C335.85,298.08,335.93,298.1,336.16,298.17Z"/><path d="M491.44,512.76l-.31,0C489.66,512.9,490.3,512.87,491.44,512.76Z"/><path d="M446.9,296.22l-.17,0H447Z"/><path d="M452.1,295.89a14.31,14.31,0,0,1-5.15.36l1.72,1.25Z"/><path d="M524.6,513.21a5,5,0,0,0,1-.34C525.24,513,524.91,513.11,524.6,513.21Z"/><path d="M382.37,513.9l.3,0Z"/><path d="M541.53,424.08c-.22-5.22.6-1.95.8-3.78a45.36,45.36,0,0,1-.5-11.92c.13,1.59,0,2.84.08,4.32l.39-3.65c.64,4.41.42,7.6,1,4.17-1.35-.52-.13-14.22-1.49-14.73l.28-2.41c0,.69.07.8.06,1.49.65-4.69-1-3.49-.79-9.53.1-2.1.3-3.57.46-2.14l-.33-4.69c0-1.14.18-1.08.22-.26l-.1-6.57,0,.05c-.21-1-.54-3.33-.68-4.46.2-1.82.14.91.31.45l-.32-4c.35-1.61.69,1.67.64,4.41,1.35-3.7-.34-3.29.45-11.27l.17,3.74c.77-2.41.49-5.33,1-9.56-.25,1-1.21,8.46-1.55,4.16a23.54,23.54,0,0,0-.12-5.13c.48,0,.37-2.28.34-5.12l.64.2c-.19-3.07-.51-2.83-.8-4.63.06-3.42.56-4.12,1-4.93.1-5.47-.8,3.78-.92-2.69a96.16,96.16,0,0,0-.4-13.19c.22-3.18.39.56.58-.59l-.51-2.82c0-.69.16-.47.24-.35-.19-2.38-.64-.2-.81-3.94-.7-1,1-7.67.23-12.3.05-.28.09-.4.14-.42s.1.12.16.22.22.58.34.4l0-.44,0-.6c0-.42,0-.82-.06-1.19,0-.72-.08-1.35-.11-1.9-.06-1.06-.11-1.76-.15-2.17-1.67.07-2.82.14-4.13.24l-1,.08-.54,0-.43.05-2,.28-4.44-.42c3.26.48-.91,1-4.56,1.51l.5.1H523.4l.76-.1-.66-.13-.84.23h-2.9c0-.19.75-.41,1.64-.63l2.1.4c1.44-.39,2.79-.82,2.49-1.19a17.79,17.79,0,0,1-1.91.17c.38-.11.62-.2.44-.27a8.15,8.15,0,0,0-1.76.24l-1.32-.71-.32.28-7.63-.44c-5.45.71-10.2,1.77-18.86,2.06,2.15-.52.47-.85.58-1.47,2.37.66,6.71-.28,11.2-.14-2.35-.07-1.83-.37-1.23-.47l-8,.6c.18-.51-1.7-.38-3.79-.59,1.58,1-6,.66-9.22,1-.2-.34.58-.68,4.55-.6-4.38-.75-5.66,1.18-10,.54a5.57,5.57,0,0,0,1.87-.13c-2.26.3-7.8.06-6.5-.23h1c-6.44-.12-19.61,0-20.57.84-.06-.1.85-1,1.23-1.19l-7.92,2h-3.61c-.46-.78-1.19-1.71,2.51-2a39.38,39.38,0,0,0-6.66,0c1,.1,2.6,1.06,1.18,1.12-3.93-.81-2.73-.43-7.57-1.13,1.57.16-.17,1.31-2.65,1.27.39-.17-.2-1.13.7-1.25l-5.88,1.07c1.07-.25-.11-.92-1.39-1.22.64.22-5.34,0-7,.09l2.61.26c-7-.17-6.87,1.59-13.78,1.53.83-.24,2.06-1.43-1.45-1.57-.86.3-2.84,1.07-5.43,1.79h-7.78c3.32-.75,7.12-1.53,9.7-1.93-2.61-.27-.73-.39-4.63-.36-1.38-.31,2.13-.47,3.27-.49l-9.08-.2c.4.67-7,.68-6.6,1.24l9.86-.7c.4.67-5.7,1.91-12.14,1.79-1.64-.27,1.23-1.2,1.09-1.42a39.52,39.52,0,0,1-6.7.28l2.73-.36c-3.58-.26-5.85.89-10.15.25-1.49-.05-4.44-.87-4.7-.47a2.83,2.83,0,0,1,2.21,2.37h-5.07l.22-.26h-1l0,.26h-5.18c-.52-.57,4-1.27,2.13-1.72a6.12,6.12,0,0,1-2,.48c-1.57-.15.64-.56-2.75-.48-.57.68-6.9-.06-1.6.57-3.32.2-3.53-.14-7.43-.11.82.3-1,.86-3.25,1.26h-4.27l-.21-.06c-6.8-.07-10.46-.38-16.8-.38-.58-.17-3.64-.37-2.34-.66a21.8,21.8,0,0,1-3.71.37c-3.78-.59,4.37-.09,1.48-.8-.25.4-5.06.55-7.85.79.86.61,6.44.12,9.23-.13,0,.29-.58.59-1.61.87H301.84v7.6c-.26,4.57,0,16.19-.4,22.91a27.78,27.78,0,0,0,.4,2.78v26c-.07-.08-.14-.09-.22,0l.22,3.34v.4c-.11-.12-.27-1.19-.36-.23a2.76,2.76,0,0,1,.36,1.34V368l0,.26,0,.24V373c0,.16,0,.37,0,.64a7.16,7.16,0,0,1,0,.93V489.41a21.94,21.94,0,0,0,1.48,7.92c0,.23,0,.47.05.7.07.41.13.8.17,1.15.08.7.07,1.21-.2,1.2,1.35,1.56,2.54,3.92,4.58,6.18a14.56,14.56,0,0,0,8.31,4.88c1.33.69-1.3-.15-.63.33.44.05.89.14,1.38.23s1,.16,1.62.28,1.25.21,2,.34a22.73,22.73,0,0,0,2.53.31l-.43.08c1.38.08,2.48,0,3.6,0l3.13,0c2,0,3.83.08,5.7.14,3.74.12,7.64.29,13.28.42l-.84-.47a31.85,31.85,0,0,1,4.07.33c2.78-.72-6.81,0-4.27-.83,3.21,1,17.1,0,19.27,1.11,3.73,0-1.09-.55,2.63-.55l1,.3.95-.38c2.44.06,3.67.43,3.77.68-.6,0-1.69.07-2.33.1,2.95.32,8.14-.06,9.73,0l-3.28-.16c10.18-.28,22.61.11,32.44-.49l-.74-.23c7.51-.41,6,.25,14.26.06l-.3,0a45.91,45.91,0,0,1,6.11-.31c-2.09.26,3.91.51,1.18.8,8.15-.44,4-.35,9.41-1.18l1.24.37a25.51,25.51,0,0,1,6.1-.61c-3.37.32,2.63.57-1.15,1,8.64.81,12.83-.82,16.79.37,4-1-7.47-.57-5.25-.79-1.86-.34,3.27-.77,6-.67s4.69,1.31,11.63,1.3c-.69,0-.73.07-1.42.06,2.6.27,5.09-.35,8.28.07,1.78-.62,4.13,0,4.65-.75l-6.37.18c3.61-.21,7-1.13,12.95-.68a26.07,26.07,0,0,1-3.45.48c1.74.24,3.35-.15,5.15.09-.51.79-7.74.17-11.61.78,1.87.33,7.32-.58,5.37.28,2.8-1.09,6.85.14,11.55-.7l-.31.48a31.52,31.52,0,0,1,3.65-.29l-2.48.62c3.81-.53,7.34.46,11,.17-7.64,0-1.71-.57-4.94-.92,4.71-.31,6.07,0,7.56.36.39.08.74.19,1.23.26s1.07.12,1.78.15a16.49,16.49,0,0,0,5.22-.83c-.73.18-1.6.33-2.24.43-1,.05-1.48,0-.28-.32a42.42,42.42,0,0,0,6.39-1.64,13.48,13.48,0,0,0,1.91-1.13,8.91,8.91,0,0,0,.79-.56c.22-.22,0-.11-.46.05-.82.33-2.09.9-.77-.07,2.52-.93,3-2.31,5.12-4.82l.37.3a13.16,13.16,0,0,0,2.47-3.35,2.76,2.76,0,0,0,.37-1.22,2.69,2.69,0,0,1,.2-1.1c.11-.29.27-.68.52-1.2s.48-1.22.85-2.11a25.6,25.6,0,0,1-.6,3.29l.4-.94.32-1a16.4,16.4,0,0,0,.55-2c.1.32.22.65.3,1,.2-1.13.39-2,.49-2.87s.18-1.56.26-2.28.1-1.46.16-2.28.06-1.57.1-2.57c-.34.93-.88-.52-.9-4.05.29-2.41.46,1.35.39-3.65a8.49,8.49,0,0,1,.24,4.54c.16.23.3,1.12.46,1.35a71.23,71.23,0,0,0,.07-8.33,19.55,19.55,0,0,1-.11,2l-.67-7.26c.18-1.14.32-.23.47.66,0-1.47-.28-2.48-.32-4.64.39.56.8.42,1,3.48L542,464c.17-.46.47-3.55.61-2.65.23-3.83-.76-9.4-.46-14.48A11.21,11.21,0,0,1,542,445c.09-4.77.57-9,0-14.66l.7-3.21C542.53,422.68,541.8,431.46,541.53,424.08Zm.06-66c.11,1.06.42,3.17.13,3.94C541.17,360.78,541.44,359.84,541.59,358ZM519.5,297.31a23.52,23.52,0,0,1-3.38-.11A11.39,11.39,0,0,1,519.5,297.31Z"/><path d="M541.67,381v.59A5.5,5.5,0,0,0,541.67,381Z"/><path d="M525.54,296.54a.66.66,0,0,1,.45.27C526.41,296.72,526.42,296.63,525.54,296.54Z"/><path d="M542.16,446.7v.17a.31.31,0,0,0,.09.16Z"/><path d="M355.72,296.26a12,12,0,0,1,1.95.25C357.73,296.39,357.27,296.29,355.72,296.26Z"/><polygon points="301.84 342.71 301.7 346.24 301.8 345.2 301.84 342.71"/><path d="M300.94,307.46a5.91,5.91,0,0,1,.38-1.7l-.62-.11Z"/><path d="M304.05,296.72c-.25.09-1.65.17-2.34.24s-.7.15,1.59.22a8,8,0,0,1,1.18-.15c.58,0,1.35-.11,1.65-.16s.58-.09.38-.12-.29,0-.61,0Z"/><path d="M409.72,296.31c2.74-.25,4.19-.11,2.92-.78-4.55-.24-1.08.63-5.19.32C406.38,296.09,410.81,296.1,409.72,296.31Z"/><path d="M409.72,296.31l-1.4.15C409.11,296.4,409.49,296.35,409.72,296.31Z"/><path d="M542.9,349.91l-.15-.22a8.72,8.72,0,0,0-.21,2.51Z"/><polygon points="542.42 389.59 542.43 388.9 541.84 390.18 542.42 389.59"/><path d="M543.17,422.89c0-1.36-.11-3-.09-4.33C543.19,421.53,542.43,423.25,543.17,422.89Z"/><path d="M299.47,204.11l-.11-1.55C299.39,203.3,299.43,203.77,299.47,204.11Z"/><path d="M299.44,215.3l.2.28C299.53,215.06,299.45,214.85,299.44,215.3Z"/><path d="M312.53,293.4c.67.09,1.62.19,3,.28Z"/><path d="M299,143l-.44-1.81C298.57,144,298.79,142.75,299,143Z"/><path d="M468.61,76.09l.5,0C469.16,76.08,468.93,76.08,468.61,76.09Z"/><path d="M505.09,291.85H505C505.4,291.93,505.32,291.91,505.09,291.85Z"/><path d="M349.81,77.25l.31,0C351.59,77.11,351,77.14,349.81,77.25Z"/><path d="M394.35,293.8l.17,0-.21,0Z"/><path d="M389.15,294.12a14.59,14.59,0,0,1,5.16-.36l-1.73-1.25Z"/><path d="M299.58,209.06v-.58A5.36,5.36,0,0,0,299.58,209.06Z"/><path d="M316.65,76.81a5.87,5.87,0,0,0-1,.33Z"/><path d="M305.09,293.35l.54-.05.43-.05,2-.27,4.44.42c-3.26-.48.91-1,4.56-1.52l-.5-.1h1.26l-.76.1.66.13.84-.23h2.9c0,.19-.75.41-1.64.63l-2.1-.4c-1.44.39-2.79.82-2.49,1.2a15.09,15.09,0,0,1,1.91-.18c-.38.11-.62.2-.44.27a7.51,7.51,0,0,0,1.76-.24l1.32.71.32-.28,7.63.45c5.45-.72,10.2-1.78,18.86-2.07-2.15.52-.47.85-.58,1.47-2.37-.65-6.71.28-11.2.15,2.35.07,1.83.36,1.23.46l8-.59c-.18.5,1.7.38,3.79.59-1.58-1,6-.67,9.22-1,.2.34-.58.68-4.55.6,4.38.76,5.66-1.18,10-.53a5.42,5.42,0,0,0-1.88.12c2.26-.3,7.8-.06,6.5.23h-1c6.44.12,19.61,0,20.57-.84.06.11-.85,1-1.23,1.19l7.92-2H397c.46.79,1.19,1.71-2.51,2a40.79,40.79,0,0,0,6.66,0c-1-.1-2.6-1.05-1.17-1.12a75.94,75.94,0,0,0,7.56,1.13c-1.57-.16.17-1.3,2.65-1.27-.39.17.2,1.13-.7,1.25l5.88-1.07c-1.07.26.11.92,1.39,1.22-.64-.22,5.34,0,7-.09l-2.61-.26c7,.17,6.87-1.58,13.78-1.52-.83.23-2.06,1.43,1.45,1.57.86-.31,2.84-1.08,5.43-1.8h7.78c-3.32.75-7.12,1.53-9.7,1.94,2.61.26.73.39,4.63.36,1.38.3-2.13.46-3.27.48l9.08.2c-.4-.67,7-.67,6.6-1.23l-9.86.69c-.4-.67,5.7-1.9,12.14-1.79,1.64.27-1.23,1.2-1.09,1.42a38.47,38.47,0,0,1,6.7-.27l-2.73.36c3.58.25,5.85-.89,10.15-.25,1.49,0,4.44.86,4.7.46a2.81,2.81,0,0,1-2.21-2.37h5.07l-.22.27h1l0-.26h5.18c.52.57-4,1.27-2.13,1.72a6.39,6.39,0,0,1,2-.48c1.57.15-.64.57,2.75.48.57-.68,6.9.06,1.6-.57,3.32-.2,3.53.14,7.43.11-.82-.29,1-.85,3.25-1.26h4.27l.21.07c6.8.06,10.46.37,16.8.37.58.17,3.64.37,2.34.66a21.8,21.8,0,0,1,3.71-.37c3.78.59-4.37.1-1.48.8.25-.39,5.06-.54,7.85-.79-.86-.61-6.44-.12-9.23.13,0-.29.58-.59,1.61-.87h12.72v-7.6c.26-4.56,0-16.19.4-22.91-.13-.95-.26-2.4-.4-2.78v-26c.07.08.14.09.22,0l-.22-3.34v-.39c.11.12.27,1.19.36.22a2.71,2.71,0,0,1-.36-1.34V222l0-.26,0-.23V217c0-.16,0-.36,0-.64a7.16,7.16,0,0,1,0-.93V100.6a21.94,21.94,0,0,0-1.48-7.92c0-.23,0-.46,0-.69-.07-.41-.13-.81-.17-1.16-.08-.69-.07-1.21.2-1.2-1.35-1.56-2.54-3.91-4.58-6.18A14.49,14.49,0,0,0,525,78.58c-1.33-.7,1.3.14.63-.34-.44,0-.89-.14-1.38-.23s-1-.15-1.62-.28-1.25-.21-2-.34a22.73,22.73,0,0,0-2.53-.31l.43-.08c-1.38-.08-2.48,0-3.6,0l-3.13,0c-2,0-3.83-.07-5.7-.13-3.74-.13-7.64-.29-13.28-.43l.84.47a31.85,31.85,0,0,1-4.07-.33c-2.78.72,6.81,0,4.27.84-3.21-1-17.1,0-19.27-1.11-3.73,0,1.09.54-2.63.54l-1-.3-.95.38c-2.44-.06-3.67-.43-3.77-.68.6,0,1.69-.07,2.33-.09-2.95-.33-8.14,0-9.73,0l3.28.17c-10.18.27-22.61-.12-32.44.49l.74.22c-7.51.41-6-.25-14.26,0l.3-.06a44.28,44.28,0,0,1-6.11.31c2.09-.26-3.91-.51-1.18-.8-8.15.45-4,.35-9.41,1.18l-1.24-.37a25,25,0,0,1-6.1.61c3.37-.32-2.63-.56,1.15-1-8.64-.81-12.83.82-16.79-.36-4,1,7.47.57,5.25.79,1.86.33-3.27.76-6,.66s-4.69-1.31-11.63-1.29c.69,0,.73-.08,1.42-.07-2.6-.26-5.09.35-8.28-.07-1.78.62-4.13,0-4.65.75l6.37-.18c-3.61.21-7,1.13-12.95.69a27.51,27.51,0,0,1,3.45-.49c-1.74-.24-3.35.15-5.15-.09.51-.79,7.74-.17,11.61-.77-1.87-.34-7.32.57-5.37-.29-2.8,1.09-6.85-.13-11.55.7l.31-.48a31.52,31.52,0,0,1-3.65.29l2.48-.62c-3.81.53-7.34-.45-11-.17,7.64,0,1.71.57,4.94.92-4.71.32-6.07,0-7.56-.35-.39-.09-.74-.2-1.23-.27s-1.07-.11-1.78-.14a16.49,16.49,0,0,0-5.22.83c.73-.19,1.6-.33,2.24-.43,1-.06,1.48,0,.28.32a41.35,41.35,0,0,0-6.39,1.63,14.52,14.52,0,0,0-1.91,1.13,6.75,6.75,0,0,0-.79.57c-.22.21.05.1.46-.06.82-.33,2.09-.9.77.07-2.52.93-3,2.31-5.12,4.83l-.37-.31a13.15,13.15,0,0,0-2.47,3.36,2.73,2.73,0,0,0-.37,1.22,2.67,2.67,0,0,1-.2,1.09c-.11.3-.27.68-.52,1.2s-.48,1.23-.85,2.11a25.6,25.6,0,0,1,.6-3.29l-.4.94-.32,1a17.5,17.5,0,0,0-.55,2c-.1-.32-.22-.65-.3-1-.2,1.13-.39,2-.49,2.87s-.18,1.56-.26,2.29-.1,1.45-.16,2.27-.06,1.57-.1,2.57c.34-.93.88.52.9,4-.29,2.41-.46-1.35-.39,3.66a8.53,8.53,0,0,1-.24-4.55c-.16-.22-.3-1.11-.46-1.34a71.21,71.21,0,0,0-.07,8.33,19.37,19.37,0,0,1,.11-2l.67,7.25c-.18,1.14-.32.24-.47-.66.06,1.47.28,2.49.32,4.65-.39-.56-.8-.43-1-3.49l.43,6.92c-.17.46-.47,3.54-.61,2.64-.23,3.84.76,9.41.46,14.49a10.88,10.88,0,0,1,.2,1.87c-.09,4.77-.57,9,0,14.66l-.7,3.22c.15,4.43.88-4.35,1.15,3,.22,5.22-.6,1.95-.8,3.78a45.36,45.36,0,0,1,.5,11.92c-.13-1.59,0-2.84-.08-4.32L299,181c-.64-4.42-.42-7.61-1-4.18,1.35.52.13,14.22,1.49,14.73l-.28,2.41c0-.69-.07-.8-.06-1.48-.65,4.68,1,3.48.79,9.52-.1,2.11-.3,3.58-.46,2.14l.33,4.69c0,1.14-.18,1.09-.22.26l.1,6.57,0,0c.21,1,.54,3.33.68,4.46-.2,1.82-.14-.91-.31-.44l.32,4c-.35,1.61-.69-1.67-.64-4.41-1.35,3.7.34,3.29-.45,11.28l-.17-3.75c-.77,2.42-.49,5.34-1,9.57.25-1,1.21-8.47,1.55-4.17a24.21,24.21,0,0,0,.12,5.13c-.48,0-.37,2.28-.34,5.12l-.64-.19c.19,3.06.51,2.82.8,4.62-.06,3.42-.56,4.13-1,4.93-.1,5.47.8-3.78.92,2.7a96,96,0,0,0,.4,13.18c-.22,3.19-.39-.55-.58.59l.51,2.82c0,.69-.16.47-.24.36.19,2.37.64.19.81,3.93.7,1-1,7.68-.23,12.3-.05.28-.09.4-.14.43s-.1-.13-.15-.23-.23-.57-.35-.4l0,.44,0,.6c0,.42,0,.82.06,1.19,0,.72.08,1.35.11,1.9.06,1.07.11,1.76.15,2.17,1.67-.07,2.82-.14,4.13-.24Zm16.66-.64a24.94,24.94,0,0,1,3.38.1A11.68,11.68,0,0,1,321.75,292.71ZM299.66,232c-.11-1.05-.42-3.17-.13-3.94C300.08,229.24,299.81,230.17,299.66,232Z"/><path d="M458.88,76.11l-.3,0Z"/><path d="M315.71,293.47a.7.7,0,0,1-.45-.26C314.84,293.29,314.83,293.38,315.71,293.47Z"/><path d="M299.09,143.31v-.16A.36.36,0,0,0,299,143Z"/><path d="M485.53,293.75a12,12,0,0,1-1.95-.25C483.52,293.62,484,293.72,485.53,293.75Z"/><polygon points="539.41 247.3 539.55 243.78 539.45 244.82 539.41 247.3"/><path d="M540.31,282.55a5.91,5.91,0,0,1-.38,1.7l.62.11Z"/><path d="M536.77,293c-.58.06-1.35.11-1.65.16s-.58.09-.38.12l.61,0h1.85c.25-.09,1.65-.17,2.34-.24s.7-.15-1.59-.22A6.76,6.76,0,0,1,536.77,293Z"/><path d="M431.53,293.7c-2.74.26-4.19.11-2.92.78,4.55.25,1.08-.63,5.19-.32C434.87,293.92,430.44,293.91,431.53,293.7Z"/><path d="M431.53,293.7l1.4-.15C432.14,293.61,431.76,293.66,431.53,293.7Z"/><path d="M298.35,240.1l.15.22a8.67,8.67,0,0,0,.21-2.51Z"/><polygon points="298.83 200.43 298.82 201.11 299.41 199.83 298.83 200.43"/><path d="M298.08,167.13c0,1.35.11,3,.09,4.32C298.06,168.48,298.82,166.76,298.08,167.13Z"/></svg>