<?xml version="1.0" encoding="utf-8"?>
<!-- Generator: Adobe Illustrator 16.0.0, SVG Export Plug-In . SVG Version: 6.00 Build 0)  -->
<!DOCTYPE svg PUBLIC "-//W3C//DTD SVG 1.1//EN" "http://www.w3.org/Graphics/SVG/1.1/DTD/svg11.dtd">
<svg version="1.1" id="Calque_1" xmlns="http://www.w3.org/2000/svg" xmlns:xlink="http://www.w3.org/1999/xlink" x="0px" y="0px"
	 width="443px" height="534px" viewBox="254 14 443 534" enable-background="new 254 14 443 534" xml:space="preserve">
<g>
	<path fill="#FFFFFF" d="M264.626,32.736c0,0-0.658-5.644,2.634-5.55c0,0,26.998-0.659,31.984-0.659s92.188-0.659,97.551-0.752
		c5.362-0.094,208.083-2.352,211.281-2.352c3.293,0,66.79-1.129,66.79-1.129s3.856-2.164,5.737-1.035
		c1.788,1.129,3.294,3.951,3.104,5.456c-0.282,1.505-0.376,3.198-0.282,4.327s2.069,100.938,1.977,106.3
		c0,5.362-0.095,11.477,0.188,17.873c0.188,6.397,0.188,94.823,0.283,100.655c0,5.832,0.281,61.052,0.376,66.037
		c0.188,4.984,0.188,94.635,0.188,99.338c-0.096,4.704-0.849,101.032-0.849,106.206c0,5.268,0.941,9.03-9.312,10.064
		c-10.254,1.034-47.506-2.352-75.915-1.788c-28.409,0.564-37.251,0.096-48.634,0.282c-11.384,0.282-43.743,0.564-51.362,0.282
		c-7.62-0.282-99.62-0.564-116.931,0.095c-17.215,0.658-58.981,0-69.424,0.848c-10.441,0.847-30.384,0.47-36.311,0.47
		c-5.926,0-11.477,0.659-12.417-1.881c-1.035-2.54-0.659-29.444-0.659-35.371s-0.094-109.403,0-112.508s0.848-101.126,0.848-107.335
		C265.473,274.591,264.626,32.736,264.626,32.736z M279.113,62.463c0.281,2.728,0.376,140.729,0.281,150.324
		c-0.188,9.595,0.564,217.961,0.472,219.936c-0.095,1.977,1.786,1.129,2.634,1.317c0.848,0.094,177.323,0.094,188.046,0.188
		c10.724,0.095,193.22-0.095,198.677-0.377c5.455-0.281,3.011-1.223,3.292-4.515c0.282-3.387-3.292-362.641-3.387-365.463
		c-0.094-2.822,0.282-6.773,0.659-8.937c0.376-2.164-0.564-1.787-3.104-1.693c-2.54,0.188-381.737,5.833-385.688,5.738
		C280.9,58.982,278.831,59.734,279.113,62.463z"/>
	<g>
		<path fill="none" d="M264.626,32.736c0,0-0.658-5.644,2.634-5.55c0,0,26.998-0.659,31.984-0.659s92.188-0.659,97.551-0.752
			c5.362-0.094,208.083-2.352,211.281-2.352c3.293,0,66.79-1.129,66.79-1.129s3.856-2.164,5.737-1.035
			c1.788,1.129,3.294,3.951,3.104,5.456c-0.282,1.505-0.376,3.198-0.282,4.327s2.069,100.938,1.977,106.3
			c0,5.362-0.095,11.477,0.188,17.873c0.188,6.397,0.188,94.823,0.283,100.655c0,5.832,0.281,61.052,0.376,66.037
			c0.188,4.984,0.188,94.635,0.188,99.338c-0.096,4.704-0.849,101.032-0.849,106.206c0,5.268,0.941,9.03-9.312,10.064
			c-10.254,1.034-47.506-2.352-75.915-1.788c-28.409,0.564-37.251,0.096-48.634,0.282c-11.384,0.282-43.743,0.564-51.362,0.282
			c-7.62-0.282-99.62-0.564-116.931,0.095c-17.215,0.658-58.981,0-69.424,0.848c-10.441,0.847-30.384,0.47-36.311,0.47
			c-5.926,0-11.477,0.659-12.417-1.881c-1.035-2.54-0.659-29.444-0.659-35.371s-0.094-109.403,0-112.508
			s0.848-101.126,0.848-107.335C265.473,274.591,264.626,32.736,264.626,32.736z M279.113,62.463
			c0.281,2.728,0.376,140.729,0.281,150.324c-0.188,9.595,0.564,217.961,0.472,219.936c-0.095,1.977,1.786,1.129,2.634,1.317
			c0.848,0.094,177.323,0.094,188.046,0.188c10.724,0.095,193.22-0.095,198.677-0.377c5.455-0.281,3.011-1.223,3.292-4.515
			c0.282-3.387-3.292-362.641-3.387-365.463c-0.094-2.822,0.282-6.773,0.659-8.937c0.376-2.164-0.564-1.787-3.104-1.693
			c-2.54,0.188-381.737,5.833-385.688,5.738C280.9,58.982,278.831,59.734,279.113,62.463z"/>
		<g>
			<path d="M280.336,61.146c-0.188,0.753-0.094,1.035-0.094,1.129c0.094,0.094,0.094,0,0.094,0.094
				c-0.094-0.659,0-1.035,0.094-1.223c0-0.188,0.094-0.282,0-0.282C280.523,60.863,280.336,61.146,280.336,61.146z"/>
			<polygon points="315.895,59.17 315.236,59.264 320.786,58.982 			"/>
			<path d="M350.982,58.7c-3.293-0.282-12.699,0.282-18.908,0.188l-1.035-0.094l-2.822,0.282
				C335.743,58.982,345.621,58.7,350.982,58.7z"/>
			<path d="M369.607,59.17c-1.129-0.094,4.045-0.188-4.326,0c0.376,0,0.564,0,0.752,0C366.787,59.17,367.82,59.17,369.607,59.17z"/>
			<path d="M366.034,59.17C362.365,59.264,368.479,59.264,366.034,59.17L366.034,59.17z"/>
			<path d="M383.061,58.888l-4.892,0.188c1.035,0.094,5.362,0,3.763,0.094C386.917,58.982,385.883,58.982,383.061,58.888z"/>
			<path d="M387.67,58.606l-2.54,0.094C385.602,58.7,386.259,58.7,387.67,58.606z"/>
			<path d="M379.861,58.794l5.363-0.188c-0.658,0-0.752-0.188-2.447,0.094C383.154,58.606,382.12,58.7,379.861,58.794z"/>
			<path d="M376.852,58.794c-2.728,0-6.207,0-1.41-0.188C366.128,58.794,367.539,58.982,376.852,58.794z"/>
			<path d="M352.676,58.324h-3.668l-3.104,0.188C347.502,58.324,352.958,58.417,352.676,58.324z"/>
			<path d="M413.352,58.606c0.282-0.094-1.6-0.188-1.976-0.282l-3.575,0.094C409.589,58.512,413.163,58.512,413.352,58.606z"/>
			<path d="M411.376,58.324l5.361-0.188C411.94,58.229,411.094,58.324,411.376,58.324z"/>
			<polygon points="388.518,58.135 379.768,58.606 390.21,58.135 			"/>
			<polygon points="433.858,58.324 430.849,58.512 436.21,58.229 			"/>
			<path d="M447.499,58.042c-2.258,0.188,3.104,0.188,0.752,0.282c3.669-0.094,6.867-0.282,9.689-0.376
				C454.836,58.135,451.638,58.135,447.499,58.042z"/>
			<path d="M462.645,57.759c-1.506,0.094-3.104,0.188-4.798,0.188C459.445,57.947,461.045,57.853,462.645,57.759z"/>
			<path d="M425.862,58.042c0.377,0,1.224,0.094,4.232,0.188l-2.068-0.188C427.367,58.042,426.615,58.042,425.862,58.042z"/>
			<path d="M427.932,58.042L427.932,58.042c2.354,0,3.951,0,4.609-0.094C431.979,57.947,430.566,58.042,427.932,58.042z"/>
			<path d="M425.393,58.042c0.188,0,0.376,0,0.564,0C425.675,58.042,425.58,58.042,425.393,58.042z"/>
			<path d="M402.627,58.135c3.198-0.188,9.689-0.376,3.387-0.47C403.756,57.853,407.425,57.947,402.627,58.135z"/>
			<path d="M422.758,57.853h-5.738c0.096,0.094,1.13,0.094-0.376,0.188L422.758,57.853z"/>
			<polygon points="425.486,57.759 422.758,57.853 424.828,57.853 			"/>
			<path d="M452.86,57.759c2.445-0.094,5.174-0.188,8.185-0.188c-3.293,0-6.679,0.094-9.877,0.094
				C450.791,57.665,449.38,57.759,452.86,57.759z"/>
			<path d="M440.726,57.853c0.188,0,0.376,0,0.564,0C440.914,57.853,440.726,57.853,440.726,57.853z"/>
			<path d="M491.053,57.101c-0.188,0-0.281,0-0.47,0h-0.095H491.053z"/>
			<path d="M450.697,57.571c-2.446,0-3.951,0.094-5.27,0.188c1.788,0,3.765-0.094,5.833-0.094
				C451.449,57.571,451.449,57.571,450.697,57.571z"/>
			<path d="M471.017,57.571c-1.316,0-2.729,0-4.232-0.094C468.006,57.571,470.546,57.665,471.017,57.571z"/>
			<path d="M442.137,57.853c-0.094,0-0.188,0-0.376,0C442.513,57.947,442.419,57.947,442.137,57.853z"/>
			<path d="M442.137,57.853c1.224-0.094,2.258-0.094,3.293-0.188c-1.506,0-2.917,0.094-4.046,0.094
				C441.572,57.853,441.854,57.853,442.137,57.853z"/>
			<path d="M500.084,55.596c-0.471,0.188-6.867,0.47-12.417,0.376c-5.456,0.188-1.882,0.753,2.916,1.035
				c0.188-0.094,0.188-0.188,5.832-0.376c-1.976-0.094-12.511-0.094-7.714-0.282c7.432-0.188,6.115,0,9.783,0
				c-3.104-0.188,9.502-0.47,7.901-0.752l-6.585,0.188C499.52,55.784,501.965,55.689,500.084,55.596z"/>
			<path d="M479.859,57.195l-2.354,0.094c2.634,0,4.516,0,7.996,0.094c3.857-0.188,4.704-0.188,4.893-0.282l-11.384,0.188
				L479.859,57.195z"/>
			<path d="M467.065,57.383c1.786-0.188,7.337-0.376,3.95-0.564c-6.772,0.094-4.798,0.282-8.843,0.376
				C473.18,57.006,459.069,57.383,467.065,57.383c-2.259,0-4.141,0.094-6.021,0.094c1.976,0,3.856,0,5.646,0
				c-0.096,0-0.188,0-0.282,0h-0.095l0,0c-0.471,0-0.658,0-0.095,0h0.188C466.689,57.477,466.877,57.383,467.065,57.383
				c3.197,0,0.47,0-0.472,0.094H466.5l0,0l11.006-0.282C475.155,57.195,472.239,57.289,467.065,57.383z"/>
			<path d="M411.846,57.195c0.377,0,0.282,0,0.377,0C412.881,57.195,413.163,57.195,411.846,57.195z"/>
			<path d="M416.361,57.195c-0.848,0-1.505,0.094-4.045,0.188c-2.259,0,0-0.094-0.095-0.188c-1.6,0.094-5.456,0.188-0.563,0.282
				h0.752c4.422,0,10.16,0.188,9.312,0.188C420.501,57.477,419.372,57.383,416.361,57.195z"/>
			<path d="M442.043,57.289l9.125-0.188l-4.704-0.094l0.282,0.094C441.572,57.006,442.701,57.195,442.043,57.289z"/>
			<polygon points="492.088,57.101 490.865,57.383 496.133,57.006 			"/>
			<polygon points="504.035,56.913 503.564,57.101 506.669,57.006 			"/>
			<path d="M546.461,435.357l-2.729,0.094C545.05,435.357,545.802,435.357,546.461,435.357z"/>
			<path d="M565.934,435.263l0.471-0.094C565.463,435.263,565.181,435.263,565.934,435.263z"/>
			<path d="M669.128,180.05c-0.094,3.951-0.376,8.278-0.188,7.808l0.188-1.223C669.128,183.907,669.128,181.838,669.128,180.05z"/>
			<path d="M672.232,380.326c0-0.377,0-0.753,0.094-1.129c-0.094-0.941-0.188-1.882-0.188-2.635
				C672.139,377.692,672.139,378.915,672.232,380.326z"/>
			<path d="M673.079,383.054l-0.094,5.174C672.985,387.099,673.079,385.405,673.079,383.054z"/>
			<path d="M439.973,435.545l-3.104,0.188C441.761,435.733,439.597,435.64,439.973,435.545z"/>
			<path d="M625.95,55.031c3.386,0,6.114,0,8.466,0C630.277,54.937,626.984,54.843,625.95,55.031z"/>
			<path d="M554.08,433.1c-1.693,0-2.352,0.095-2.258,0.095C553.516,433.193,554.457,433.193,554.08,433.1z"/>
			<path d="M644.199,54.843c-0.564,0-1.224,0-1.787,0c-2.445,0.094-4.985,0.094-7.996,0.188
				C637.427,55.031,640.812,55.031,644.199,54.843z"/>
			<path d="M278.172,207.707c0-0.282,0-0.659,0-0.847C278.172,206.767,278.172,207.143,278.172,207.707z"/>
			<path d="M280.148,95.199c0,1.129,0,2.916,0,4.609C280.242,98.962,280.242,97.645,280.148,95.199z"/>
			<path d="M551.917,56.348C549.377,56.348,551.54,56.348,551.917,56.348L551.917,56.348z"/>
			<path d="M539.594,55.689c0.564,0,0.94-0.094,1.034-0.094C540.44,55.596,540.062,55.689,539.594,55.689z"/>
			<path d="M669.316,53.149c0.094,0,0.094,0.094,0.188,0.094c-0.281-0.188-0.47-0.188-0.47-0.188
				C668.939,53.056,669.128,53.149,669.316,53.149z"/>
			<path d="M548.06,56.254c0.94,0,2.069,0,3.198,0C550.788,56.254,549.848,56.254,548.06,56.254z"/>
			<path d="M548.624,56.348c-0.847,0-1.599,0-2.163,0C546.084,56.442,546.366,56.442,548.624,56.348z"/>
			<path d="M555.396,56.254c-1.41,0-2.821,0-4.045,0c0.471,0,0.658,0,0.564,0C552.669,56.254,553.704,56.254,555.396,56.254z"/>
			<path d="M279.207,414.756c0-0.188,0-0.377,0-0.563C279.113,411.651,279.113,412.78,279.207,414.756z"/>
			<path d="M671.856,245.711c0-0.094,0-0.188,0-0.282C671.856,245.617,671.856,245.711,671.856,245.711L671.856,245.711z"/>
			<path d="M672.139,254.836c-0.281-3.857-0.281-6.021-0.281-8.937l-0.564,3.01L672.139,254.836z"/>
			<path d="M499.802,435.451l6.396,0.188c-7.714,0.282-13.265,0.188-7.243,0.471c0.939-0.658,24.74-0.095,25.682-0.752l4.232,0.094
				c-1.224,0-1.411,0-2.54,0c8.185,0.282,6.021-0.472,16.557-0.376c3.669,0,6.209,0.094,3.764,0.188l8.185-0.188
				c2.352,0,1.787,0.094-0.564,0.094l12.417-0.094h-0.094c1.787-0.096,5.832-0.282,7.809-0.377c3.197,0.095-1.601,0.095-0.753,0.188
				l6.866-0.188c2.822,0.188-2.916,0.377-7.714,0.281c6.491,0.659,5.738-0.188,19.661,0.188l-6.491,0.094
				c4.233,0.377,9.313,0.188,16.65,0.472c-1.787-0.095-14.77-0.564-7.243-0.754c2.069,0,4.892,0.096,8.938-0.094
				c0,0.188,3.95,0.188,8.937,0.188l-0.564,0.47c5.362-0.094,4.894-0.282,8.092-0.376c5.926,0,7.148,0.282,8.56,0.471
				c9.502,0-6.584-0.377,4.704-0.471c7.901,0.094,13.452,0,22.953-0.282c5.55,0.094-0.94,0.188,1.034,0.282l4.893-0.282
				c1.224,0,0.846,0.094,0.658,0.094c2.069-0.094,2.163-0.094,2.54-0.188c0.188,0,0.47-0.095,1.129-0.095
				c0.658-0.095,1.599,0,3.292-0.188c0.094,0,0.282-0.095,0.471-0.095s0.471-0.094,0.752-0.188c0.282-0.095,0.659-0.188,1.035-0.377
				c0.376-0.188,0.658-0.563,0.753-1.034c0.094-0.471,0-1.034-0.095-1.506c-0.094-0.376-0.094-0.847-0.094-1.223
				c0-0.847,0.094-1.881,0.094-2.822c0.095-4.231,0.188-9.029,0-13.075c0.095-1.976,0.188,0.94,0.282,0.376
				c-0.282-11.101-0.282-9.501-0.658-18.531l0.094-7.713c-0.188,5.644-0.47-1.601-0.752-7.902c-0.095,1.976-0.188,3.763-0.188,4.892
				l-0.282-10.158c0-1.225,0.188-0.188,0.282,1.41c0-0.658-0.095-1.316-0.095-1.882c0.095-3.669,0.282-1.787,0.471,0.848
				c-0.095,1.223-0.095,2.445-0.188,3.669c0.188,2.54,0.47,4.892,0.564,4.326c0-0.657-0.096-1.976-0.096-3.293
				c0.096,0.659,0.096,1.035,0.096,0.753c0-0.376,0-1.41-0.096-3.104l0.282-2.352l-0.094-0.564l0.094-13.264
				c-0.376-9.501-1.034-17.779-1.223-32.831c0.282,3.763,0.376,0.847,0.658,1.035c-0.282,4.139,0.281,11.665,0.281,19.473
				c0-4.045,0.188-3.198,0.188-2.164l-0.376-13.922c0.282,0.282,0.188-2.916,0.188-6.585c-0.47,2.728-0.376-10.348-0.563-16.086
				c0.188-0.377,0.377,1.034,0.377,7.9c0.282-7.618-0.659-9.877-0.377-17.309c0,1.693,0,2.634,0.095,3.293
				c-0.188-3.951-0.188-13.547,0-11.289v1.693c-0.095-11.194-0.282-34.147-0.753-35.841c0.094-0.094,0.471,1.505,0.564,2.164
				l-1.506-20.037c0.376,1.787,1.13-4.986,1.411,4.327c0-2.634,0.095-6.021-0.095-11.571c0,1.787-0.47,4.515-0.47,2.069
				c0.282-6.867,0.188-4.703,0.376-13.169c-0.094,2.728-0.658-0.282-0.658-4.609c0.094,0.658,0.564-0.376,0.564,1.223l-0.659-10.724
				c0.095,2.634,0.471,0.47,0.563-1.975c-0.094,1.128-0.094-9.313-0.188-12.135l-0.095,4.515c0-12.135-0.848-11.947-0.94-23.988
				c0.094,1.411,0.753,3.575,0.753-2.54c-0.282-2.822-1.411-12.417-1.693-23.047l0.095-2.07l-0.282-8.184
				c0.471,5.08,1.411,19.378,1.882,27.092c0.094-4.515,0.188-1.223,0.094-8.09c0.095-2.446,0.282,3.668,0.282,5.738l-0.094-15.804
				c-0.282,0.752-0.471-12.135-0.659-11.477l0.471,17.215c-0.281,0.658-1.034-9.972-1.034-21.166
				c0.095-2.822,0.563,2.164,0.658,1.881c-0.095-1.411-0.281-10.63-0.281-11.665l0.188,4.797c0.095-6.208-0.562-10.16-0.282-17.685
				c0-2.634,0.282-7.714,0.096-8.184c-0.282,4.233-1.411,5.08-1.693,2.258c0-0.941,0.188-13.64,0.376-16.557
				c0.282-4.233,0.753,6.397,0.941,2.728c-0.096-0.188-0.188-2.54-0.283-3.48c0-2.728,0.283,1.129,0.188-4.797
				c-0.376-0.941-0.094-12.041-0.282-2.822c-0.188-5.738,0-6.115-0.094-12.888c-0.094,1.129-0.281-0.47-0.471-2.916
				c-0.094-1.223-0.094-2.728-0.094-4.327c0-0.753,0.094-1.599,0.188-2.352c0.094-0.752,0.188-1.599,0.282-2.164
				c0,0.188,0.094-0.094,0.188-0.47c0-0.188,0-0.376,0-0.564c-0.094-0.188-0.281-0.282-0.376-0.376
				c-11.853,0.188-18.25,0.094-29.256,0.282c-1.035-0.094-6.303-0.094-4.045-0.282c-1.6,0.094-3.011,0.188-6.491,0.282
				c-6.585-0.188,7.62-0.188,2.54-0.376c-0.47,0.188-8.843,0.376-13.64,0.564c1.505,0.282,11.194-0.094,16.086-0.282
				c0,0.188-2.07,0.47-5.645,0.658c-3.575,0.188-8.562,0.47-14.3,0.659c-9.219,0.282-3.95-0.188-5.55-0.094
				c-17.215,0.188-14.675,0.941-28.974,0.847c-5.646-0.188-0.282-0.47-1.506-0.659c7.432-0.188,11.477,0,16.557-0.094h-6.208
				c2.353-0.094,7.337-0.282,10.065-0.188c-4.799-0.188-29.068,0.376-42.427,0.376c-2.352,0.094-6.396,0.282-4.516,0.376
				l4.233-0.094c3.855,0.188-7.902,0.376-2.54,0.376c-5.646,0.188-11.947,0.564-19.943,0.564l-1.505-0.282
				c0.188,0.094,5.174,0.094,7.432,0c-3.292,0.188-12.229-0.188-15.804,0.188l5.55,0.094c-5.644,0.188-12.699,0.658-19.66,0.658
				c3.198,0.282,1.6-0.094,6.585,0.188c-4.327-0.376,17.968-0.282,11.006-0.564c5.175,0.282,8.844,0,15.616,0.282
				c-0.188-0.094-2.353-0.188,3.574-0.188c0.282,0,0.94-0.094,1.317-0.094c0.188,0,0.281,0,0.376,0c-0.095,0-0.188,0-0.282,0
				c0.282,0,0.282,0-0.094,0c-1.411,0-2.54-0.094-3.012-0.094c2.916-0.282,12.323-0.376,15.521-0.564
				c3.479,0-1.505,0.094,0.471,0.188l4.703-0.282c0.471,0.188,9.313,0.188,1.035,0.471l7.432-0.094
				c4.421,0.094,10.441,0,14.11-0.094c3.479,0,8.843-0.376,5.832-0.188l11.665-0.282l0.094,0.094
				c11.477-0.188,23.706-0.753,36.876-0.564c3.856-0.094,7.901-0.282,14.393-0.282l1.224,0.188c2.446-0.094,6.209,0,9.688-0.188
				h0.282h0.188c0.094,0,0.188,0,0.188,0.188c0,0.094,0,0.188,0,0.282c0,0.282-0.094,0.47-0.094,0.659
				c-0.188,1.317-0.282,2.352-0.282,2.916c-0.094,0.659-0.188,1.599-0.282,2.634c0,0.564-0.094,1.129-0.094,1.788
				c0,0.564,0,1.223,0,1.976c0,2.634,0,5.738,0.094,8.937c0.095,6.491,0.282,13.358,0.282,17.685l0.282,0.282
				c0.094,6.021,0.188,11.759,0.376,19.285l0.188-0.471c0.282,6.397,0,16.557,0.095,26.716c-0.095-0.659-0.095-3.292-0.095-5.08
				c-0.376,12.135,0.564,25.681,0.376,36.782c0.096,2.728,0.096,4.703,0.096,6.679c0-0.282,0-0.47,0-0.658c0,0.282,0,0.658,0,1.128
				c0,1.223-0.096,2.446-0.096,3.857c0-1.128,0.096-2.257,0.096-3.198c0,2.164,0.094,5.362,0.188,8.466l-0.188,1.317
				c0,0.282,0,0.47,0,0.752c-0.096,3.104,0.094,2.446,0.281,0.847c0.095,1.6,0.095,3.01,0.188,4.139
				c-0.376,2.54,0.188,8.278-0.188,11.759c0.188,2.164,0.282,15.898,0.752,17.497c-0.094,0.094-0.094,1.035-0.094-0.658
				c0,3.48,0,7.055,0.094,10.159l-0.281,1.505l0.471,7.714c-0.094,4.703-0.188,6.585-0.471,1.976
				c0.471,11.194,0.188,9.03,0.658,18.625l-0.188-0.47c0,3.387,0.376,8.844,0.188,10.912c-0.281,7.62,0.282,37.628,0.188,57.194
				c0.471-3.764-0.188,9.125,0.282,9.878c-0.094,1.129-0.188,3.855-0.282,0.658c0.188,9.972-0.094,14.957,0.377,21.823
				c-0.095,1.129-0.188-2.163-0.282-1.129c0,0.753,0.095,3.198,0.095,4.233c-0.095,1.035-0.095-1.505-0.188-3.01
				c0.095,10.158,0.564,11.193,0.94,11.945c-0.095,5.174-0.095,7.714,0.188,11.478c-0.094,1.787-0.188,4.798-0.282-1.505
				c0,3.573,0,21.729,0.282,22.105c-0.094,1.129,0,4.985,0.095,5.927c0,7.996,0,8.654,0.095,16.462l0.094-2.162
				c0.094,0.752,0.094,1.599,0.188,2.444c0,0.848,0,1.693,0,2.822c0,0.563,0.095,1.129,0.188,1.505c0,0.188,0.095,0.471,0,0.658
				c-0.094,0.188-0.282,0.377-0.47,0.471c-0.848,0.282-2.353,0.376-3.951,0.376h0.188c-14.486-0.094-6.209,0.188-20.508-0.094
				l0.753,0.188c-1.316,0.471-12.699-0.281-20.978,0l3.01,0.095c-4.515,0.188-12.699-0.658-17.215-0.658
				c-1.034,0,1.6-0.095,2.916-0.095c-11.946-0.282-1.505,0.281-10.441,0.377c-1.6-0.188,2.069-0.377-3.855-0.472
				c-3.012-0.094-17.311,0.564-25.493,0.282c1.787,0.094,3.574,0.282-0.564,0.376c-6.303,0.096-17.121-0.47-22.766-0.094
				c-0.847,0-1.128-0.094-1.128-0.094c-4.798,0.094-15.71,0.188-18.626,0.376c-4.422-0.753-30.009,0.376-29.915-0.282h-14.863
				l0.377-0.094c-9.501-0.096-12.888,0.094-16.181,0.281c-2.163-0.095-0.564-0.095-0.376-0.188
				c-13.922-0.188-15.239-0.188-26.904,0.188l-1.223-0.188c-3.198,0.094-20.037-0.376-33.677-0.094c0.094,0,0.376-0.096,1.505-0.096
				c-15.334,0.282-36.688-0.657-42.333,0.188l-10.065,0.188c13.076,0.095-1.976,0.376,3.388,0.471
				c-5.175,0.095-13.265-0.282-6.961-0.282h1.034c2.353-0.47-16.274-0.188-15.897-0.47c-12.889,0-25.588-0.096-38.1-0.096
				c-6.208,0-12.417-0.094-18.531-0.094h-1.035h-0.564c-0.094,0-0.281,0-0.376,0c-0.094,0-0.282,0-0.376,0h-0.376
				c-0.095,0-0.188,0-0.282,0c-0.188,0-0.376-0.094-0.376-0.282c-0.094-0.188,0-1.129-0.094-1.881v-2.258c0-3.011,0-6.115,0-9.125
				l-0.376,2.822v-8.373c0.094-2.257,0.281-3.01,0.281,3.011c0.095-1.6,0.095-4.139,0-6.209c-0.094-2.163-0.188-3.856-0.188-3.95
				c0.094-11.759,0.376,4.516,0.376,0.847v-4.893v1.129c-0.188-3.95-0.282-4.231-0.282-11.477c0.094-4.609,0.188-2.353,0.188-4.14
				c0,0,0-0.188,0-0.563s0-1.129,0-2.164v-10.63l-0.282,4.328c-0.188-4.704,0-9.973-0.281-4.986
				c0.469-7.243,0.094-39.51,0.188-43.931c-0.188-6.585-0.188-13.076-0.188-21.071c-0.095,1.975-0.377,3.198-0.377-3.669
				c0.659,2.445,0.282-12.7,0.659-18.345c-0.282,4.986-0.094-19.66-0.563-11.853c0-5.833,0.188-0.376,0.375-4.797
				c-0.281-13.734,0.095-30.291,0-47.317c-0.094-0.282-0.188,2.54-0.375-1.035l0.375-8.937c0-3.387-0.471-3.104-0.188-9.219
				c-0.094,0.847-0.188,2.164-0.188-0.094c0.47-33.395-0.377-68.201,0.375-102.066c-0.188,4.609-0.188,1.505-0.188-1.976
				c0,2.258-0.188-0.094-0.281,0.376l0.281-14.205c-0.281-2.54-0.094-15.239-0.376-16.65l0.095,4.516
				c-0.377-5.926-0.752,8.372-1.224,7.525c0.47,6.679-0.563,17.591,0.095,28.598c-0.095,2.446-0.188-2.07-0.283-0.753
				c0.188,2.822,0.283,6.115,0.188,12.323l-0.094-0.658c0.094,17.497-0.095,25.022-0.188,44.683l0.188-1.411
				c0,4.233-0.095,5.08-0.188,7.056c0.377,4.892,0-11.853,0.377-7.432c-0.471,5.644,0,29.82-0.564,33.583
				c0,6.491,0.281-1.881,0.281,4.609l-0.188,1.693l0.188,1.599c0,4.233-0.281,6.397-0.375,6.585c0-1.035,0-2.916,0-4.045
				c-0.283,5.456,0.094,15.616,0,17.497l0.094-6.209c0.188,17.779,0,39.416,0.376,56.537l0.094-1.316
				c0.188,13.076-0.094,10.535,0,24.834v-0.563c0.095,2.821,0.188,6.679,0.188,10.63c-0.094-3.575-0.188,6.867-0.377,2.069
				c0.283,14.205,0.188,6.961,0.564,16.368l-0.188,2.164c0.188,3.197,0.281,3.386,0.281,10.63c-0.188-5.833-0.281,4.608-0.47-1.977
				c-0.376,15.146,0.47,22.296-0.094,29.351c0.47,6.867,0.282-13.076,0.376-9.219c0.188-3.293,0.376,5.645,0.376,10.348
				c0,4.798-0.563,8.278-0.563,20.413c0-1.224,0-1.316,0-2.445c-0.095,4.515,0.188,8.842,0,14.486c0.281,3.011,0,7.243,0.375,7.996
				l-0.094-11.102c0.094,6.304,0.564,12.041,0.376,22.483c-0.094-0.753-0.188-3.857-0.282-5.927c-0.094,3.104,0.094,5.832,0,9.03
				c-0.375-0.753-0.094-13.451-0.375-20.132c-0.188,3.293,0.281,12.7-0.095,9.407c0.563,4.704,0,11.947,0.376,20.037l-0.188-0.471
				c0,0.188,0,0.281,0,0.563s0.094,0.659,0.281,0.941c0.282,0.657,1.035,1.033,1.881,1.033c0.377,0,0.941-0.094,1.129-0.094h0.095
				c0,0,0,0,0.094,0h0.472c0.657,0,1.316,0,1.975,0l-2.352,0.094c-0.283,0-0.188,0-0.377,0c-0.094,0-0.281,0.096-0.658,0.096
				c-0.564,0.094-1.129,0.094-1.693-0.188c0.564,0.282,1.316,0.282,1.881,0.188c0.282,0,0.376,0,0.471,0l0,0v-0.096l0,0l0,0
				c0,0.096,0-0.188,0,0.188l0,0h0.188h0.376c0.847,0,1.693,0,2.54,0c1.599,0,3.198,0.094,4.798,0.094
				c3.198,0.096,6.303,0.188,9.501,0.096c-13.358,0-3.01-0.282-8.655-0.472c16.463-0.282,9.407,0.564,27.846,0.472
				c-2.446,0-9.313-0.188-5.457-0.282c3.48,0.094,8.091,0.094,10.254,0.282c12.229,0-1.881-0.188,3.292-0.378
				c4.139,0.282,6.021-0.094,11.288-0.188v0.188c13.923,0.188,3.669-0.47,16.181-0.281l-5.269,0.281l6.492-0.094l-1.317,0.282
				c7.055-0.188,9.313-0.094,16.274-0.094c-1.6-0.188,0.94-0.377,7.055-0.377c4.232,0.095-2.353,0.188,6.396,0.188
				c-1.976,0.094-4.139,0.282-7.902,0.094c-0.375,0.096-1.976,0.188-2.352,0.188c4.516,0.188,11.382,0,14.487,0
				c-1.224,0-2.634,0-3.388-0.094l12.605-0.282c1.976,0.094,0.377,0.188-1.129,0.188c2.54,0,4.328-0.094,8.091-0.188
				c-0.94,0.188-0.753,0.376-6.021,0.47l12.041-0.188c0.847,0.094,6.208,0.188,4.608,0.281c6.68,0.095,16.368-0.377,25.211-0.188
				c0.471,0,1.411-0.094,3.292-0.094c8.278,0.094,15.71,0.281,25.493,0.094l5.55,0.376c7.715-0.094-7.524-0.376,5.27-0.564
				c9.124-0.094,3.386,0.282,6.585,0.377c4.515-0.188,12.417-0.471,20.789-0.281C504.505,435.451,502.342,435.357,499.802,435.451z
				 M595.001,435.169c-1.882,0.094-5.55,0.188-6.867,0.094C590.203,434.98,591.803,435.075,595.001,435.169z M672.515,366.31
				c0.095,1.411,0.095,3.48,0,5.928C672.515,370.448,672.515,368.473,672.515,366.31z M579.573,55.689c0.094,0,0.094,0,0.188,0
				C583.9,55.689,582.396,55.689,579.573,55.689z M571.013,55.784c-0.847,0-0.752,0.094-0.47,0.094
				c0.564-0.094,2.539-0.094,4.703-0.094C574.682,55.689,573.553,55.689,571.013,55.784z M280.618,387.381l-0.095,1.693
				C280.523,385.312,280.523,386.347,280.618,387.381z"/>
			<path d="M672.985,382.678c0,0.564-0.096,0.658-0.096,0.753C672.891,384.183,672.985,384.277,672.985,382.678z"/>
			<path d="M440.537,435.451h-0.282c-0.188,0-0.282,0-0.282,0H440.537z"/>
			<path d="M670.257,87.015c0,1.787,0,2.728-0.094,3.386C670.257,90.496,670.352,89.649,670.257,87.015z"/>
			<path d="M525.766,56.818l5.455-0.094c-2.634,0.094-3.573,0-4.892,0C526.424,56.725,527.458,56.818,525.766,56.818z"/>
			<path d="M478.26,56.066c-0.847,0-1.692,0-2.445,0.094l0.188,0.094C479.389,56.254,481.74,56.066,478.26,56.066z"/>
			<path d="M520.686,56.16c-0.471-0.188-3.856-0.094-7.714,0c0.188,0,0.471,0,0.658,0C512.501,56.442,516.641,56.254,520.686,56.16z
				"/>
			<path d="M512.125,56.16c-1.223,0-2.352,0-3.574,0.094C508.08,56.348,509.961,56.254,512.125,56.16z"/>
			<path d="M560.195,56.066c-1.788,0-1.129,0.282-2.164,0.188C556.056,56.536,570.166,55.784,560.195,56.066z"/>
			<polygon points="517.581,55.501 518.992,55.784 521.062,55.501 			"/>
			<path d="M547.872,55.313h-6.115c0.095,0-0.658,0.094-1.599,0.094C543.826,55.313,547.966,55.313,547.872,55.313z"/>
			<path d="M540.062,55.407c-1.976,0-3.855,0.094-4.892,0.094C536.207,55.501,538.465,55.407,540.062,55.407z"/>
			<polygon points="525.953,55.313 527.74,55.407 532.068,55.313 			"/>
			<path d="M613.721,54.278l6.68-0.188c0.658-0.094-1.129-0.094-3.669,0C615.132,54.185,612.686,54.278,613.721,54.278z"/>
			<path d="M593.496,53.996c1.787,0,1.975,0.094,2.916,0.094l0.188-0.282L593.496,53.996z"/>
			<path d="M612.969,53.62c0.658-0.094,9.688-0.376,1.224-0.188C613.533,53.432,606.854,53.62,612.969,53.62z"/>
			<polygon points="669.599,97.363 669.599,95.669 669.128,95.857 			"/>
			<path d="M671.668,186.071c0-7.902-0.282-1.881-0.282-9.031c-0.094-1.881-0.094,5.833-0.188,3.951
				C671.386,185.789,671.292,188.329,671.668,186.071z"/>
			<path d="M671.197,180.991c0-0.753-0.094-1.599-0.094-2.446C671.197,179.957,671.197,180.615,671.197,180.991z"/>
			<polygon points="280.336,76.573 280.43,71.399 280.242,74.692 			"/>
			<path d="M279.959,66.79l0.282-1.223l-0.376-3.104c0,0.564,0,1.505,0.094,2.257C279.959,65.567,279.959,66.319,279.959,66.79z"/>
			<path d="M609.111,435.733l0.376-0.095c-0.752-0.095-1.977-0.095-4.327-0.095L609.111,435.733z"/>
			<polygon points="540.062,435.64 541.192,435.64 539.029,435.357 			"/>
			<path d="M482.021,436.016c2.353,0,5.175,0,7.525,0C484.374,436.016,481.364,435.64,482.021,436.016z"/>
		</g>
		<g>
			<path d="M263.402,34.9c0-2.728-0.188-1.787-0.188-2.164C263.309,37.346,263.498,34.806,263.402,34.9z"/>
			<polygon points="264.062,80.242 263.968,79.396 264.156,86.074 			"/>
			<path d="M264.156,122.573c0.281-4.045-0.094-15.333,0-22.859l0.094-1.223l-0.282-3.387
				C264.062,104.23,264.25,116.177,264.156,122.573z"/>
			<path d="M263.498,145.15c0.094-1.411,0.094,4.892,0-5.268c0,0.47,0,0.659,0,0.941
				C263.498,141.764,263.498,143.081,263.498,145.15z"/>
			<path d="M263.498,140.917C263.498,136.402,263.402,143.833,263.498,140.917L263.498,140.917z"/>
			<path d="M263.686,161.519l-0.094-5.833c-0.094,1.223-0.094,6.491-0.094,4.516C263.498,166.128,263.591,164.905,263.686,161.519z"
				/>
			<path d="M263.968,167.069l-0.094-3.01C263.874,164.529,263.874,165.375,263.968,167.069z"/>
			<path d="M263.779,157.567l0.095,6.491c0.094-0.847,0.188-0.941-0.095-3.01C263.968,161.613,263.779,160.296,263.779,157.567z"/>
			<path d="M263.779,153.899c0.095-3.292,0.095-7.526,0.188-1.693C263.968,141.011,263.686,142.61,263.779,153.899z"/>
			<path d="M264.532,124.737l0.094-4.421l-0.094-3.857C264.532,118.435,264.438,125.02,264.532,124.737z"/>
			<path d="M263.591,198.112c0.095,0.376,0.188-1.976,0.282-2.446l-0.094-4.327C263.779,193.597,263.686,197.83,263.591,198.112z"/>
			<path d="M263.874,195.666l0.188,6.491C264.062,196.325,263.968,195.29,263.874,195.666z"/>
			<polygon points="264.344,168.104 263.968,157.474 264.344,170.173 			"/>
			<polygon points="263.686,222.853 263.498,219.184 263.779,225.769 			"/>
			<path d="M263.779,239.314c-0.188-2.728-0.188,3.763-0.281,0.847c0,4.516,0.188,8.278,0.281,11.759
				C263.686,248.251,263.686,244.395,263.779,239.314z"/>
			<path d="M263.874,257.658c-0.095-1.787-0.095-3.668-0.188-5.738C263.779,253.896,263.874,255.777,263.874,257.658z"/>
			<path d="M264.062,213.257c0,0.47-0.188,1.505-0.188,5.08l0.188-2.54C264.062,215.044,264.062,214.104,264.062,213.257z"/>
			<path d="M264.062,215.703L264.062,215.703c0,2.822,0,4.797,0,5.644C264.062,220.595,264.062,218.901,264.062,215.703z"/>
			<path d="M264.062,212.599c0,0.282,0,0.376,0,0.659C264.062,212.975,264.062,212.881,264.062,212.599z"/>
			<path d="M264.156,185.13c0.094,3.857,0.281,11.759,0.376,4.045C264.438,186.447,264.344,190.869,264.156,185.13z"/>
			<path d="M264.25,209.4v-6.867c-0.094,0.094-0.094,1.411-0.188-0.47L264.25,209.4z"/>
			<polygon points="264.344,212.787 264.25,209.4 264.25,211.94 			"/>
			<path d="M264.062,245.899c0.094,3.01,0.094,6.209,0.188,9.877c0-3.951,0-7.996,0-11.947
				C264.156,243.36,264.062,241.667,264.062,245.899z"/>
			<path d="M264.062,231.225c0,0.188,0,0.47,0,0.659C264.062,231.507,264.062,231.13,264.062,231.225z"/>
			<path d="M264.156,292.088c0-0.188,0-0.376,0-0.564v-0.094V292.088z"/>
			<path d="M264.25,243.266c0-3.01,0-4.704-0.094-6.397c0,2.258,0,4.61,0.094,7.055C264.25,244.112,264.25,244.206,264.25,243.266z"
				/>
			<path d="M264.062,267.818c0-1.505,0.094-3.292,0.094-5.174C264.062,264.149,263.968,267.253,264.062,267.818z"/>
			<path d="M264.062,232.918c0-0.188,0-0.282,0-0.471C263.968,233.388,263.968,233.294,264.062,232.918z"/>
			<path d="M264.062,232.918c0,1.505,0.094,2.728,0.094,3.951c0-1.787-0.094-3.48-0.094-4.892
				C264.062,232.259,264.062,232.636,264.062,232.918z"/>
			<path d="M265.379,303.094c-0.188-0.564-0.281-8.371,0-15.051c-0.094-6.585-0.753-2.258-1.129,3.48
				c0.094,0.188,0.188,0.188,0.188,7.056c0.095-2.353,0.377-15.146,0.471-9.407c0,9.031-0.094,7.432-0.282,11.76
				c0.282-3.764,0.282,11.477,0.563,9.5l-0.094-7.902C265.285,302.342,265.285,305.258,265.379,303.094z"/>
			<path d="M264.344,278.448v-2.822c0,3.198-0.094,5.456-0.281,9.688c0.094,4.703,0.094,5.645,0.188,5.927
				c0-4.609,0.094-9.22,0.094-13.828V278.448L264.344,278.448z"/>
			<path d="M264.25,263.114c0.188,2.164,0.282,8.937,0.564,4.798c0-8.278-0.188-5.738-0.282-10.724
				c0.094,13.264-0.095-3.857-0.188,5.738c0-2.634-0.094-4.986-0.094-7.149c0,2.352-0.094,4.704-0.094,6.867
				c0-0.094,0-0.188,0-0.282v-0.094l0,0c0-0.564,0-0.752,0-0.094c0,0,0,0.188,0,0.282C264.25,262.55,264.25,262.832,264.25,263.114
				c0,3.857-0.094,0.564-0.094-0.564v-0.188c0,0,0,0,0,0.094l0.188,13.265C264.344,272.896,264.344,269.323,264.25,263.114z"/>
			<path d="M265.098,196.325c0,0.376,0,0.376,0,0.47C265.002,197.547,265.098,197.924,265.098,196.325z"/>
			<path d="M264.908,201.781c0-0.941-0.094-1.788-0.094-4.892c0.094-2.728,0.094,0,0.188-0.094
				c-0.094-1.881-0.188-6.679-0.282-0.659v0.941c-0.094,5.362-0.282,12.229-0.282,11.289
				C264.626,206.767,264.814,205.355,264.908,201.781z"/>
			<path d="M264.626,232.824l0.095,11.1l0.188-5.644l-0.094,0.282C264.908,232.259,264.721,233.576,264.626,232.824z"/>
			<polygon points="264.062,293.311 263.874,291.9 264.156,298.297 			"/>
			<polygon points="263.968,307.704 263.779,307.233 263.874,310.996 			"/>
			<path d="M685.12,371.013l-0.094-3.292C685.026,369.319,685.12,370.261,685.12,371.013z"/>
			<path d="M685.12,394.53l0.094,0.563C685.12,394.061,685.12,393.59,685.12,394.53z"/>
			<path d="M389.928,537.518c4.704,0.095,10.065,0.282,9.501,0.095l-1.411-0.188C394.631,537.518,392.091,537.518,389.928,537.518z"
				/>
			<path d="M632.158,536.294c-0.47,0-0.94-0.094-1.41-0.094c-1.129,0-2.258,0.094-3.199,0.094
				C628.96,536.294,630.56,536.294,632.158,536.294z"/>
			<path d="M635.545,535.542l6.209,0.376C640.343,535.824,638.367,535.729,635.545,535.542z"/>
			<path d="M684.367,242.231l-0.188-3.763C684.18,244.395,684.273,241.76,684.367,242.231z"/>
			<path d="M263.402,455.206c-0.094,4.139-0.094,7.337-0.094,10.253C263.402,460.567,263.591,456.522,263.402,455.206z"/>
			<path d="M687.283,380.231c0-1.977-0.094-2.821-0.094-2.821C687.189,379.479,687.189,380.702,687.283,380.231z"/>
			<path d="M263.309,477.312c0-0.754,0-1.411,0.094-2.164c0-3.011-0.094-6.021,0-9.689
				C263.215,469.128,263.121,473.268,263.309,477.312z"/>
			<path d="M435.928,26.528c-0.376,0-0.752,0-1.033,0C434.799,26.528,435.27,26.528,435.928,26.528z"/>
			<path d="M299.809,25.681c1.317,0,3.48,0,5.551-0.094C304.418,25.587,302.725,25.587,299.809,25.681z"/>
			<path d="M263.402,365.651C263.402,362.641,263.402,365.181,263.402,365.651L263.402,365.651z"/>
			<path d="M264.344,350.788c0,0.658,0,1.129,0.094,1.223C264.438,351.822,264.344,351.353,264.344,350.788z"/>
			<path d="M264.532,507.697c0,0.094,0,0.188,0,0.281C264.532,507.038,264.532,507.227,264.532,507.697z"/>
			<path d="M263.591,361.041c0,1.129-0.094,2.446-0.094,3.951C263.498,364.334,263.498,363.111,263.591,361.041z"/>
			<path d="M263.498,361.7c0-1.035,0-1.882,0-2.634C263.498,358.596,263.402,358.972,263.498,361.7z"/>
			<path d="M263.402,369.884c0-1.787,0-3.386,0.095-4.984c0,0.563,0,0.847,0,0.657C263.402,366.592,263.402,367.814,263.402,369.884
				z"/>
			<path d="M682.862,25.681c0-0.188-0.095-0.376-0.188-0.564c-0.563-1.317-0.939-1.599-0.752-1.411S682.58,24.646,682.862,25.681z"
				/>
			<path d="M469.417,535.26c-0.188,0-0.188,0-0.376,0c0.188,0,0.282,0,0.47,0H469.417z"/>
			<path d="M480.423,535.166c-4.703,0.188-7.337,0.188-10.912,0.094l3.669,0.564L480.423,535.166z"/>
			<path d="M684.932,314.57l-0.094,7.714c-0.376-9.312-0.282-15.991-0.471-8.748c0.659,1.129,0.188,29.914,0.753,30.949
				l-0.094,5.079c0-1.41,0-1.692,0-3.104c-0.282,9.877,0.47,7.337,0.376,20.037c0,4.421-0.095,7.525-0.188,4.515l0.188,9.878
				c0,2.916-0.095,2.163-0.095-0.658l0.095,15.052v-0.094c0.094,2.162,0.281,7.055,0.376,9.405
				c-0.095,3.857-0.095-1.881-0.188-0.939l0.188,8.372c-0.188,3.387-0.376-3.48-0.282-9.312c-0.658,7.809,0.188,6.961-0.188,23.705
				c0-2.634,0-5.268,0-7.901c-0.377,5.08-0.281,11.194-0.563,20.132c0.094-2.069,0.752-17.873,0.752-8.748
				c-0.094,2.539-0.094,5.926,0,10.816c-0.188,0-0.188,4.798-0.282,10.818l-0.282-0.376c0,6.49,0.188,5.926,0.282,9.783
				c-0.094,7.148-0.376,8.653-0.562,10.348c-0.096,11.477,0.47-7.996,0.376,5.644c-0.188,9.597-0.096,16.274,0,27.752
				c-0.188,6.679-0.188-1.13-0.282,1.223l0.188,5.927c0,1.411-0.094,0.94-0.094,0.753c0.094,4.985,0.282,0.376,0.282,8.278
				c0.188,1.034,0,5.174-0.094,10.064c-0.096,1.224-0.376,2.353-1.035,3.198c-0.658,0.848-1.787,1.411-3.01,1.787
				c-2.446,0.753-5.175,0.94-7.526,1.129c-2.353,0,1.129-0.188,0.377-0.282c-1.693,0.095-3.104,0.095-4.327,0.095
				c-1.224,0-2.258,0-3.198,0c-1.882,0-3.198,0-4.516-0.095c-2.54,0-4.798-0.094-10.348-0.094l-9.313-0.659
				c6.867,0.564-1.976,0.377-9.595,0.282c2.445,0.188,4.516,0.377,5.926,0.471c-4.045-0.094-8.184-0.188-12.229-0.281
				c-1.505-0.095-0.282-0.188,1.786-0.188c-0.847,0-1.599,0-2.258,0c-4.421-0.282-2.068-0.376,1.035-0.376
				c1.505,0.094,3.01,0.188,4.421,0.376c3.011-0.094,5.927-0.188,5.27-0.376c-0.753,0-2.354,0-4.045-0.094
				c0.752,0,1.315,0,0.939-0.094c-0.376-0.096-1.692,0-3.669,0l-2.822-0.472l-0.657,0.095c-5.362-0.282-10.726-0.472-16.087-0.564
				c-5.737,0.094-11.101,0.471-17.31,0.753c-6.208,0.282-13.264,0.47-22.389,0.564c4.516-0.282,0.94-0.377,1.224-0.659
				c4.985,0.282,14.11-0.188,23.519-0.281c-4.893,0-3.857-0.095-2.636-0.188c-5.644,0.188-11.193,0.281-16.838,0.47
				c0.376-0.281-3.575-0.188-7.996-0.281c3.292,0.47-12.604,0.188-19.473,0.563c-0.376-0.095,1.223-0.376,9.595-0.376
				c-4.608-0.188-7.619,0.094-10.535,0.281c-2.917,0.188-5.927,0.376-10.441,0.282c2.069,0,3.104,0,3.951-0.094
				c-4.799,0.188-16.462,0.188-13.734,0h2.069c-6.772,0-17.12,0.094-25.964,0.094c-8.843-0.188-16.367,0-17.309,0.188
				c-0.095-0.096,1.787-0.472,2.634-0.564l-24.176,1.223c2.163-0.376-6.021-1.223,5.174-1.316c-3.199-0.094-7.244-0.094-14.017,0
				c2.163,0.095,5.456,0.471,2.444,0.563c-8.277-0.376-5.737-0.188-15.896-0.563c3.292,0.095-0.377,0.659-5.551,0.563
				c0.847-0.094-0.471-0.563,1.506-0.563l-12.982,0.563c3.199-0.094,0.564-0.47-2.352-0.563c1.316,0.095-11.194,0-14.675,0.095
				l5.55,0.094c-7.337,0-10.912,0.188-14.58,0.472c-3.575,0.281-7.244,0.47-14.486,0.657c1.787-0.188,4.326-0.847-3.104-0.657
				c-3.388,0.376-14.958,1.599-27.845,1.787l-2.446-0.188l-9.877,0.188c6.114-0.472,23.423-1.317,32.829-1.787
				c-5.455-0.096-1.504-0.188-9.782-0.096c-2.916-0.094,4.517-0.281,6.866-0.281h-19.096c0.848,0.281-14.675,0.377-13.922,0.658
				l20.79-0.377c0.847,0.282-12.041,0.941-25.587,0.941c-3.48-0.095,2.54-0.564,2.258-0.659c-1.787,0.095-12.889,0.282-14.111,0.282
				l5.738-0.282c-3.763,0-6.867,0.095-10.16,0.377c-1.599,0.094-3.291,0.282-5.174,0.376c-1.787,0.094-3.856,0.188-6.115,0.188
				c-3.104,0.094-9.312-0.282-9.877-0.096c5.08,0.282,6.115,1.411,2.729,1.693c-0.563,0-4.704-0.094-9.125-0.188
				c-4.421-0.096-9.125-0.282-10.912-0.378c-5.174-0.281,7.714-0.657,3.386-0.939c-0.188,0.094-3.01,0.188-4.232,0.188
				c-3.292,0,1.316-0.281-5.738-0.188c-0.281,0.094-1.316,0.094-2.54,0c-1.129-0.094-2.54-0.471-2.916-1.035
				c-0.094-0.094-0.188-0.282-0.282-0.376c0-0.188-0.094-0.282-0.094-0.376c-0.094-0.188-0.094-0.282,0-0.188
				c0,0.094,0,0.188,0.094,0.376c0,0.095,0,0.188,0.094,0.281c0,0.096,0.095,0.188,0.095,0.282c0.282,0.377,1.035,0.941,2.258,1.129
				c-0.847-0.094-1.505-0.376-1.976-0.658c-0.471-0.281-0.658-0.753-0.752-1.223c-0.188-1.035-0.188-2.07-0.282-3.011
				c-0.095-1.977-0.095-4.14-0.188-8.278c-0.188,2.634-0.847-7.337-0.847-14.393c0.094,0.377,0.188-1.129,0.282-1.881
				c0.094-14.3,0.188-22.014,0.188-35.371c0.094-1.224,0.188-7.715,0.282-4.893c-0.094-1.881-0.188-3.668-0.188-7.808
				c0.283-7.996,0,9.219,0.377,3.104c-0.188-0.563-0.282-10.63-0.377-16.557c-0.281,1.787-0.094,13.546,0.095,19.473
				c-0.188,0-0.376-2.54-0.563-6.867c-0.188-4.326-0.283-10.348-0.377-17.309c-0.094-11.101,0.282-4.798,0.188-6.772
				c0.094-20.885-0.658-17.779-0.376-35.089c0.281-6.866,0.47-0.281,0.658-1.786c0.094,9.029-0.188,13.922-0.188,20.035l0.094-7.524
				c0.095,2.916,0.188,8.937,0.095,12.229c0.281-5.737,0-35.183,0.375-51.269c-0.094-2.822-0.094-7.809-0.188-5.456v5.08
				c-0.282,4.703-0.188-9.597-0.376-3.104c-0.094-6.867-0.282-14.485-0.094-24.082l0.282-1.787
				c-0.094,0.188-0.188,6.304-0.188,8.938c-0.094-4.045,0.47-14.77,0.188-19.097l-0.282,6.772c-0.095-6.867-0.282-15.333-0.188-23.8
				c-0.281,3.857,0,1.976-0.376,7.996c0.472-5.269-0.188,21.824,0.282,13.358c-0.471,6.207-0.282,10.724-0.658,18.812
				c0.094-0.282,0.188-2.916,0.094,4.233c0,0.281,0.094,1.129,0.094,1.6c0,0.188,0,0.282,0,0.47c0-0.188,0-0.281,0-0.376
				c0,0.282,0,0.376,0-0.188c0.095-1.693,0.095-3.104,0.188-3.669c0.188,3.574,0.095,14.958,0.188,18.721
				c-0.094,4.232-0.094-1.788-0.188,0.564l0.095,5.737c-0.188,0.564-0.471,11.288-0.471,1.224c0,3.01-0.094,6.021-0.094,9.029
				c-0.094,5.27-0.188,12.605-0.094,17.121c0,4.233,0.188,10.725,0.094,7.057l0.094,14.109l-0.094,0.094
				c0,13.924,0.376,28.691,0,44.591c0.094,4.702,0.094,9.501,0.094,17.401l-0.188,1.505c0.094,6.021-0.282,18.062,0,20.696
				c-0.094,1.599-0.188,4.232-0.188,7.525c0,3.197,0,6.961,0.282,11.006c0,0.471,0.094,1.035,0.094,1.505l0.094,0.753
				c0.094,0.282,0.188,0.658,0.282,1.035c0.282,0.752,0.847,1.505,1.505,1.881c0.282,0.188,0.658,0.377,0.94,0.471
				s0.563,0.188,0.847,0.282c2.258,0.47,4.233,0.376,6.115,0.376s3.668-0.094,5.268-0.094s3.198,0,4.516,0l0.376-0.282
				c7.243,0,14.298,0,23.329-0.282l-0.564-0.188c1.977-0.094,4.233-0.188,6.68-0.376c1.223-0.095,2.445-0.188,3.763-0.188
				s2.634-0.094,4.045-0.094c5.55-0.094,11.665,0,17.874-0.094c-0.848,0.094-3.951,0.094-6.208,0
				c14.769,0.376,31.043-0.377,44.401-0.282c3.291-0.095,5.737-0.188,8.09-0.188c-0.282,0-0.564,0-0.848,0c0.377,0,0.848,0,1.317,0
				c1.505,0,3.01,0,4.608,0c-1.41,0-2.728-0.094-3.856,0c2.54-0.094,6.491-0.188,10.254-0.281l1.599,0.188c0.282,0,0.564,0,0.848,0
				c3.763,0.094,3.011-0.095,1.035-0.281c1.882-0.096,3.669-0.096,5.08-0.188c3.01,0.376,9.971-0.188,14.203,0.188
				c2.54-0.188,19.19-0.188,21.261-0.564c0.095,0.094,1.224,0.094-0.848,0.094c4.233,0,8.468,0.094,12.323,0l1.788,0.282
				l9.312-0.376c5.646,0.188,7.996,0.282,2.353,0.47c13.546-0.282,11.007-0.094,22.483-0.376l-0.564,0.188
				c4.139,0,10.724-0.188,13.17,0.094c4.609,0.282,15.991,0.282,29.161,0.188c6.585-0.095,13.641-0.188,20.508-0.281
				c6.867-0.188,13.546,0,19.472,0.094c-4.608-0.564,11.008,0.282,11.947-0.188c1.411,0.096,4.703,0.188,0.848,0.282
				c12.041-0.188,18.154-0.094,26.434-0.47c1.411,0.094-2.54,0.188-1.316,0.282c0.94,0,3.856-0.096,5.079,0
				c1.225,0.094-1.787,0.094-3.668,0.094c6.114,0,9.501,0,11.478-0.094c1.975-0.096,2.539-0.282,2.916-0.472
				c6.208,0.376,9.312,0.472,13.828,0.376c2.164,0.188,5.737,0.472-1.883,0.188c4.327,0.188,26.246,1.316,26.717,1.035
				c1.316,0.094,6.021,0.188,7.148,0.188c4.798,0.095,7.526-0.094,10.16-0.563c1.316-0.282,2.634-0.564,4.139-1.505
				c0.753-0.472,1.505-1.13,1.977-2.069c0.471-0.94,0.753-2.164,0.753-3.387c-0.095,0.939-0.188,1.882-0.564,2.729
				c0.564-2.07,0.282-4.046,0.376-6.491c0-2.445,0.094-5.361,0.094-9.219v0.188c0.377-17.495-0.094-7.524,0.377-24.834l-0.188,0.94
				c-0.47-1.599,0.376-15.333,0.282-25.397l-0.188,3.668c-0.094-5.456,0.753-15.333,0.848-20.789
				c0.095-1.224,0.095,1.881,0.095,3.573c0.376-14.393-0.282-1.881-0.282-12.604c0.188-1.976,0.376,2.54,0.47-4.703
				c0.096-1.787,0-7.056-0.094-13.076c-0.094-6.02-0.188-12.887,0-17.777c-0.094,2.162-0.282,4.326-0.376-0.659
				c-0.095-7.619,0.47-20.695,0-27.562c0-0.939,0.094-1.315,0.094-1.411c-0.094-5.832-0.188-19.002-0.376-22.481
				c0.376-2.729,0.282-11.759,0.188-20.227c-0.094-8.372-0.282-16.086,0.095-16.086l-0.188-17.968l0.094,0.471
				c0-11.477-0.188-15.521-0.376-19.565c0-2.634,0.094-0.753,0.188-0.472c0.095-16.837,0-18.438-0.377-32.547l0.188-1.505
				c-0.188-3.857,0.282-24.27,0-40.732c0,0.188,0.094,0.47,0.094,1.787c-0.282-18.532,0.564-44.401-0.282-51.174l-0.281-12.229
				c0.095,15.804-0.377-2.352-0.471,4.139c-0.095-6.209,0.094-16.086,0.188-8.466v1.223c0.563,2.822-0.188-19.661,0.095-19.19
				c-0.471-31.137-1.035-61.521-1.506-90.684l-0.281,3.387l-0.095-4.986c0-0.847,0.095-1.599,0.188-2.446
				c0-0.376,0.188-0.752,0.188-1.411c0-0.564-0.094-1.035-0.281-1.411c-0.471-1.411-1.035-2.164-0.753-1.881
				c0.094,0.188,0.47,0.564,0.847,1.505c0.188,0.47,0.376,1.035,0.472,1.976c0,0.188,0,0.564-0.096,0.658
				c0,0.188-0.094,0.376-0.094,0.563c-0.094,0.376-0.094,0.752-0.094,1.223c0.094-0.471,0.188-0.941,0.188-1.505
				c0-0.188,0.096-0.188,0.096-0.47c0-0.188,0-0.47,0-0.659c0-0.376-0.096-0.847-0.282-1.129c-0.471-1.505-1.411-2.728-2.446-3.763
				c-0.282-0.282-0.563-0.47-0.847-0.658c-0.376-0.188-0.847-0.376-1.223-0.376c-0.754-0.094-1.317,0-1.787,0.094
				c-0.941,0.188-1.506,0.47-1.506,0.564c-0.376,0.188-0.752,0.282-1.129,0.47c-0.188,0.094-0.282,0.188-0.471,0.188
				c-0.094,0.094-0.188,0.094-0.282,0.094c-0.563,0-1.034,0-1.505,0s-0.753,0-1.035,0c-0.471,0-0.563,0-0.375-0.094
				c0.188,0,0.563-0.094,1.129-0.094c0.281,0,0.563,0,0.939-0.094c0.188,0,0.376,0,0.471,0h0.281c0.096,0,0.096-0.094,0.188-0.094
				l0.471-0.188c0.282-0.188,0.564-0.282,0.847-0.376c0.564-0.282,1.129-0.376,1.506-0.564c0.375-0.094,0.657-0.188,0.753-0.188
				c0,0-0.188,0-0.753,0.094c-0.564,0.188-1.13,0.376-1.693,0.564c-0.282,0.094-0.564,0.188-0.847,0.376l-0.376,0.188l-0.188,0.094
				l-2.352,0.094h1.316c-4.798,0.188-5.175,0.376-13.923,0.47c-5.55,0-2.822-0.188-4.984-0.094c0,0-0.188,0-0.659,0
				s-1.316,0-2.634,0.094l-12.794,0.188l5.175,0.188c-5.646,0.188-12.041,0.188-6.115,0.376c-4.327-0.188-16.273,0-27.845,0.188
				c-11.57,0.188-22.671,0.282-25.306,0.282c-7.996,0.282-15.804,0.376-25.492,0.47c2.445,0,3.856,0.282-4.516,0.376
				c3.104-0.658-15.334-0.094-22.201-0.47c6.021,0.188-23.894,0.376-14.299,0.659c-6.961,0-0.47-0.188-5.738-0.282
				c-16.649,0.47-36.688,0.282-57.287,0.564c-0.282,0.094,3.104,0.188-1.317,0.376l-10.912-0.282
				c-4.045,0.094-3.763,0.563-11.194,0.282c1.034,0.094,2.635,0.188-0.094,0.188c-10.064,0-20.318,0.094-30.573,0.188
				c-10.253,0.094-20.602,0.188-30.948,0.282c-20.695,0.188-41.485,0.376-61.992,0.094c5.55,0.094,1.881,0.188-2.352,0.188
				c2.728,0-0.095,0.188,0.469,0.282c-5.737-0.094-11.477-0.094-17.12,0c-3.104,0.376-18.345,0.376-20.132,0.752l5.457-0.188
				c-7.244,0.47,10.065,0.564,9.031,1.035c4.045-0.282,9.406-0.282,15.332-0.282c6.021,0.094,12.605,0.094,19.285-0.188
				c2.916,0.094-2.54,0.188-0.941,0.282c3.388-0.188,7.433-0.282,14.957-0.282l-0.846,0.094c21.166-0.188,30.196-0.094,53.996-0.094
				l-1.787-0.188c5.08,0,6.208,0.094,8.561,0.094c5.833-0.376-14.299,0.094-9.031-0.282c6.773,0.471,36.029-0.376,40.639,0.094
				c7.901-0.094-2.352-0.188,5.55-0.282l2.069,0.094l1.977-0.188c5.174,0,7.714,0.094,7.901,0.188c-1.223,0-3.575,0.094-4.892,0.094
				c6.679,0.094,18.812-0.282,21.165-0.282h-7.525c21.448-0.376,47.601-0.47,68.295-1.035l-1.599-0.094
				c15.804-0.376,12.699,0,30.008-0.282h-0.658c3.48-0.188,8.09-0.282,12.889-0.282c-4.423,0.188,8.277,0.188,2.539,0.376
				c17.12-0.376,8.467-0.282,19.85-0.752l2.634,0.188c3.857-0.188,4.14-0.282,12.888-0.47c-7.148,0.188,5.552,0.188-2.444,0.47
				c18.154,0.188,26.998-0.752,35.37-0.376c8.371-0.658-15.711,0-11.102-0.188c-3.951-0.094,6.867-0.47,12.605-0.564
				c5.832-0.094,9.878,0.47,24.553,0.188c-1.411,0-1.6,0-3.011,0.094c5.456,0,10.725-0.376,17.402-0.282
				c0.848-0.094,1.693-0.094,2.54-0.188c0.94,0,1.881-0.094,2.822-0.094c0.188-0.094,0.376-0.188,0.47-0.282l0.377-0.188
				c0.188-0.094,0.471-0.188,0.658-0.282c0.471-0.188,0.847-0.282,1.224-0.47c0.753-0.188,1.223-0.282,1.505-0.376
				c-0.658,0-1.411,0.188-2.069,0.376c-0.376,0.094-0.658,0.282-1.035,0.376c-0.376,0.188-0.658,0.282-1.128,0.564l-8.937,0.188
				c1.409-0.094,2.82-0.094,4.325-0.188c1.507-0.094,3.012-0.094,4.61-0.188l0.47-0.282l0.377-0.188
				c0.281-0.094,0.564-0.282,0.847-0.376c0.563-0.188,1.224-0.47,1.788-0.564c0.657-0.094,1.315-0.094,1.786,0.188
				c0.564,0.376,1.035,0.846,1.506,1.411c0.471,0.564,0.847,1.223,1.129,1.976c0.094,0.376,0.281,0.752,0.281,1.129
				c0.096,0.376,0,0.752-0.094,1.129c-0.094,0.847-0.188,1.787-0.281,2.634c0,0.47,0,0.941,0,1.411c0,0.47,0,0.941,0,1.411
				c0-0.282-0.095-0.659,0-1.223c0-0.094,0-0.282,0.094-0.376l0,0l0,0c0.094,0-0.188,0-0.188,0l0,0l0,0l0,0v-0.094v-0.094v-0.282
				c0-0.282,0-0.658,0-1.035c0-0.752,0.095-1.505,0.095-2.164l0.094-0.564v-0.282v-0.188c0-0.282-0.094-0.564-0.094-0.847
				c0.094,0.376,0.094,0.752,0.094,1.129c-0.094,0.47-0.188,0.94-0.188,1.411c-0.095,0.94-0.188,1.787-0.095,2.728v0.188v0.094
				c0.095,0-0.282,0,0.282,0l0,0l0,0l0,0l0,0l0,0v0.376l-0.095,0.659c-0.094,0.47-0.188,0.941-0.094,1.317c0,0.941,0,1.787,0,2.822
				c0-0.094-0.095-0.471-0.095-0.847c0-0.47-0.094-1.035,0-1.788c0.095-0.752,0.188-1.599,0.377-2.54c0.47,0-0.659,0.094-0.563,0
				l0,0l0,0l0,0v-0.094v-0.094v-0.188v-0.376c0-0.282,0-0.564,0-0.752c0-0.564,0.094-1.129,0.094-1.599
				c0-0.282,0.094-0.564,0.094-0.847l0.095-0.47c0-0.094,0-0.188,0-0.282c0-0.376-0.095-0.847-0.377-1.317
				c-0.376-0.941-1.034-1.881-1.787-2.54c-0.188-0.188-0.376-0.282-0.563-0.47c-0.094-0.094-0.282-0.094-0.472-0.188
				c-0.376-0.094-0.939,0-1.409,0.094c-0.472,0.094-1.035,0.282-1.506,0.47c-0.282,0.094-0.471,0.188-0.658,0.282l-0.376,0.188
				l-0.564,0.282c-0.94,0-1.788,0.094-2.54,0.094c0.282,0,0.658,0,1.034,0c0.471,0,1.035,0,1.506,0
				c0.188-0.094,0.376-0.188,0.563-0.282c0.095-0.094,0.282-0.094,0.377-0.188c0.281-0.094,0.563-0.282,0.847-0.376
				c0.564-0.188,1.129-0.376,1.693-0.47c0.563-0.094,1.033,0,1.315,0.094c0.377,0.188,0.753,0.564,1.035,0.847
				c0.564,0.658,0.94,1.317,1.034,1.505c0.095,0.282,0,0.094-0.47-0.47c0.376,0.47,0.753,1.129,0.939,1.693
				c0.094,0.282,0.188,0.564,0.094,0.847c-0.094,0.47-0.094,0.847-0.188,1.317c-0.094,0.94-0.188,1.881-0.094,2.916v0.188v0.094l0,0
				c-0.564,0,0.752-0.094,0.562,0l0,0l0,0v0.094l-0.094,0.376c0,0.282-0.094,0.471-0.094,0.753c-0.096,0.47-0.096,1.035-0.188,1.505
				c-0.094,0.564-0.188,1.035-0.188,1.599c0,0.564,0,1.035,0,1.599c0,1.129,0,2.164,0.094,3.387
				c0.094,2.258,0.094,4.704,0.282,7.149l-0.188-0.659c0.094,1.599,0.188,4.798,0.282,7.714l-0.376-5.174
				c0.376,7.996,0.094,15.427,0.376,23.141c-0.282-16.086,0.188-3.668,0.282-10.441c0.657,19.849-0.376,11.477,0.188,33.677
				c-0.095-3.01-0.095-11.288,0.094-6.585c0,4.233,0.095,9.783,0,12.417c0.282,14.675,0.188-2.258,0.472,3.951
				c-0.188,4.986,0.281,7.244,0.47,13.641l-0.188,0.094c0.188,16.745,0.564,4.421,0.658,19.567
				c-0.094-2.164-0.281-4.233-0.376-6.397c0.095,2.634,0.188,5.268,0.188,7.902l-0.282-1.599c0.282,8.561,0.282,11.289,0.188,19.661
				c0.188-1.976,0.375,1.129,0.471,8.562c-0.095,5.08-0.188-2.822-0.188,7.713c-0.188-2.352-0.376-4.985-0.094-9.595
				c-0.095-0.471-0.188-2.352-0.188-2.822c-0.188,5.456,0,13.734,0,17.497c0-1.505,0-3.198,0-4.139l0.376,15.239
				c-0.095,2.446-0.188,0.47-0.188-1.411c0,3.104,0.094,5.268,0.188,9.784c-0.188-1.129-0.376-0.847-0.471-7.338l0.282,14.581
				c-0.095,0.941-0.188,7.432-0.282,5.55c-0.095,8.09,0.376,19.754,0.282,30.479c0,0.564,0.094,1.693,0.094,3.951
				c0,10.065-0.188,19.002,0.188,30.855l-0.282,6.771c0.094,9.313,0.376-9.123,0.564,6.397c0.188,11.006-0.282,4.14-0.282,7.996
				c0.188,5.456,0.562,14.957,0.376,25.116C684.932,320.31,684.932,317.675,684.932,314.57z M685.214,429.619
				c0-2.258-0.188-6.68,0-8.278C685.402,423.881,685.309,425.855,685.214,429.619z M615.226,535.354
				c1.693-0.094,4.233,0.095,7.149,0.188C620.212,535.542,617.859,535.447,615.226,535.354z M263.402,399.14
				c0,0.096,0,0.188,0,0.282C263.309,404.312,263.402,402.62,263.402,399.14z M263.498,388.792c0-1.034-0.094-0.94-0.094-0.564
				c0.094,0.754,0.094,3.012,0,5.646C263.498,393.214,263.591,391.896,263.498,388.792z M653.418,21.73h1.977
				C650.973,21.918,652.195,21.824,653.418,21.73z"/>
			<path d="M635.074,535.636c0.659,0.095,0.848,0.095,0.94,0.188C636.956,535.824,636.956,535.729,635.074,535.636z"/>
			<path d="M684.367,242.889v-0.376c0-0.188,0-0.282,0-0.376V242.889z"/>
			<path d="M277.42,536.953c2.164,0,3.292,0.094,4.139,0.094C281.652,537.047,280.712,537.047,277.42,536.953z"/>
			<path d="M263.591,334.043v6.585c0-3.198,0.095-4.327,0.095-5.926C263.686,334.89,263.591,336.113,263.591,334.043z"/>
			<path d="M265.379,276.566c0-0.94,0-2.069,0-3.01l-0.094,0.281C265.285,277.979,265.379,280.895,265.379,276.566z"/>
			<path d="M264.344,327.929c0.188-0.563,0.188-4.703,0.188-9.312c0,0.282,0,0.563,0,0.847
				C264.25,318.052,264.344,323.037,264.344,327.929z"/>
			<path d="M264.532,317.581c0-1.411,0-2.916,0-4.327C264.438,312.689,264.532,315.041,264.532,317.581z"/>
			<path d="M263.498,375.717c0.094-2.164-0.188-1.411-0.188-2.635C263.121,370.637,263.498,387.758,263.498,375.717z"/>
			<polygon points="265.002,324.166 264.814,325.859 265.002,328.493 			"/>
			<path d="M264.532,360.76l0.094-7.432c0,0.094-0.094-0.847-0.094-1.977c0,2.259-0.095,4.703-0.095,6.49
				C264.532,359.631,264.532,360.854,264.532,360.76z"/>
			<path d="M264.626,351.446c0-2.353,0-4.609,0-5.928C264.626,346.743,264.626,349.471,264.626,351.446z"/>
			<polygon points="265.002,334.325 265.002,336.489 264.908,341.757 			"/>
			<path d="M264.25,440.438l0.094,8.09c0.094,0.847,0.094-1.41,0.094-4.421C264.438,442.225,264.344,439.214,264.25,440.438z"/>
			<path d="M264.908,415.979c-0.094,2.164-0.094,2.353-0.188,3.574l0.281,0.282L264.908,415.979z"/>
			<path d="M265.002,439.59c0.094,0.847,0.188,11.759,0.188,1.506C265.098,440.249,265.098,432.158,265.002,439.59z"/>
			<polygon points="289.932,537.8 287.861,537.8 288.145,538.364 			"/>
			<path d="M397.266,534.979c-9.596,0-2.258,0.281-10.912,0.281c-2.258,0.188,7.055,0,4.797,0.094
				C396.889,535.26,399.899,535.354,397.266,534.979z"/>
			<path d="M391.057,535.447c-0.94,0-1.881,0.095-2.916,0.095C389.833,535.542,390.586,535.447,391.057,535.447z"/>
			<polygon points="277.326,25.869 271.117,25.869 275.068,25.963 			"/>
			<path d="M265.098,27.28c-0.564,0.376-0.941,0.941-1.224,1.411c-0.376,1.505-0.282,2.728-0.095,4.139
				c-0.094-0.752-0.094-1.881,0.095-2.917C263.968,28.879,264.438,27.751,265.098,27.28z"/>
			<path d="M684.462,446.739l0.094,0.471c0.095-0.94,0.095-2.352,0.095-5.269L684.462,446.739z"/>
			<polygon points="684.744,363.205 684.744,364.71 685.026,361.982 			"/>
			<path d="M684.18,293.123c0,2.822,0.095,6.209,0.095,9.125C684.18,295.945,684.556,292.37,684.18,293.123z"/>
		</g>
	</g>
</g>
</svg>
