<?xml version="1.0" encoding="utf-8"?>
<!-- Generator: Adobe Illustrator 16.0.0, SVG Export Plug-In . SVG Version: 6.00 Build 0)  -->
<!DOCTYPE svg PUBLIC "-//W3C//DTD SVG 1.1//EN" "http://www.w3.org/Graphics/SVG/1.1/DTD/svg11.dtd">
<svg version="1.1" id="Calque_1" xmlns="http://www.w3.org/2000/svg" xmlns:xlink="http://www.w3.org/1999/xlink" x="0px" y="0px"
	 width="442px" height="530px" viewBox="251 17 442 530" enable-background="new 251 17 442 530" xml:space="preserve">
<g>
	<path d="M263.402,34.9c0-2.728-0.188-1.787-0.188-2.164C263.309,37.346,263.498,34.806,263.402,34.9z"/>
	<polygon points="263.968,79.396 264.156,86.074 264.062,80.242 	"/>
	<path d="M264.156,122.573c0.281-4.045-0.094-15.333,0-22.859l0.094-1.223l-0.282-3.387
		C264.062,104.23,264.25,116.177,264.156,122.573z"/>
	<path d="M263.591,139.882c0,0.47,0,0.659,0,0.941c0,0.94,0,2.164,0,4.327C263.686,143.833,263.686,150.042,263.591,139.882z"/>
	<path d="M263.498,140.917C263.498,136.402,263.402,143.833,263.498,140.917L263.498,140.917z"/>
	<path d="M263.402,160.107c0.095,6.021,0.188,4.798,0.283,1.317l-0.095-5.832C263.498,156.815,263.498,162.083,263.402,160.107z"/>
	<path d="M263.968,167.069l-0.094-3.01C263.874,164.529,263.874,165.375,263.968,167.069z"/>
	<path d="M263.874,163.964c0.094-0.847,0.188-0.941-0.095-3.01c0.095,0.564,0-0.752-0.094-3.48L263.874,163.964z"/>
	<path d="M263.779,153.899c0.095-3.292,0.095-7.526,0.188-1.693C263.968,141.011,263.686,142.61,263.779,153.899z"/>
	<path d="M264.532,124.737l0.094-4.421l-0.094-3.857C264.532,118.435,264.438,125.02,264.532,124.737z"/>
	<path d="M263.874,195.666l-0.095-4.327c0,2.258-0.094,6.491-0.188,6.773C263.686,198.488,263.779,196.136,263.874,195.666z"/>
	<path d="M263.874,195.666l0.188,6.491C264.062,196.325,263.968,195.29,263.874,195.666z"/>
	<polygon points="264.344,168.104 263.968,157.474 264.344,170.173 	"/>
	<polygon points="263.779,225.769 263.686,222.853 263.498,219.184 	"/>
	<path d="M263.779,239.314c-0.188-2.728-0.188,3.763-0.281,0.847c0,4.516,0.188,8.278,0.281,11.759
		C263.686,248.251,263.686,244.395,263.779,239.314z"/>
	<path d="M263.874,255.212c0-0.188,0-0.376,0-0.564C263.874,254.836,263.874,255.024,263.874,255.212z"/>
	<path d="M263.779,254.648c0-0.847-0.094-1.787-0.094-2.728C263.779,252.861,263.779,253.708,263.779,254.648z"/>
	<path d="M263.874,257.658c0-0.847-0.095-1.599-0.095-2.446C263.874,256.059,263.874,256.906,263.874,257.658z"/>
	<path d="M264.062,215.797c0-0.752,0-1.693,0-2.54c0,0.47-0.188,1.505-0.188,5.08L264.062,215.797z"/>
	<path d="M264.062,215.703L264.062,215.703c0,2.822,0,4.797,0,5.644C264.062,220.595,264.062,218.901,264.062,215.703z"/>
	<path d="M264.062,212.599c0,0.282,0,0.376,0,0.659C264.062,212.975,264.062,212.881,264.062,212.599z"/>
	<path d="M264.626,189.175c-0.188-2.728-0.188,1.693-0.376-4.045C264.344,188.987,264.438,196.889,264.626,189.175z"/>
	<path d="M264.062,201.969l0.188,7.432v-6.867C264.25,202.627,264.156,203.944,264.062,201.969z"/>
	<polygon points="264.344,212.787 264.25,209.4 264.25,211.94 	"/>
	<path d="M264.062,245.899c0.094,3.01,0.094,6.209,0.188,9.877c0-3.951,0-7.996,0-11.947
		C264.156,243.36,264.062,241.667,264.062,245.899z"/>
	<path d="M264.062,231.225c0,0.188,0,0.47,0,0.659C264.062,231.507,264.062,231.13,264.062,231.225z"/>
	<path d="M264.156,292.088c0-0.188,0-0.376,0-0.564v-0.094V292.088z"/>
	<path d="M264.25,243.266c0-3.01,0-4.704-0.094-6.397c0,2.258,0,4.61,0.094,7.055C264.25,244.112,264.25,244.206,264.25,243.266z"/>
	<path d="M264.062,267.818c0-1.506,0.094-3.292,0.094-5.174C264.062,264.149,263.968,267.253,264.062,267.818z"/>
	<path d="M264.062,232.918c0-0.188,0-0.282,0-0.471C263.968,233.388,263.968,233.294,264.062,232.918z"/>
	<path d="M264.062,232.918c0,1.505,0.094,2.728,0.094,3.951c0-1.787-0.094-3.48-0.094-4.892
		C264.062,232.259,264.062,232.636,264.062,232.918z"/>
	<path d="M264.344,278.448v-2.822c0,3.198-0.094,5.456-0.281,9.688c0.094,4.703,0.094,5.645,0.188,5.927
		c0-4.609,0.094-9.22,0.094-13.828V278.448L264.344,278.448z"/>
	<path d="M264.25,263.114c0.188,2.164,0.282,8.937,0.564,4.798c0-8.278-0.188-5.738-0.282-10.724
		c0.094,13.264-0.095-3.857-0.188,5.738c0-2.634-0.094-4.986-0.094-7.149c0,2.352-0.094,4.704-0.094,6.867c0-0.094,0-0.188,0-0.282
		v-0.094l0,0c0-0.564,0-0.752,0-0.094c0,0,0,0.188,0,0.282C264.25,262.55,264.25,262.832,264.25,263.114
		c0,3.856-0.094,0.564-0.094-0.564v-0.188c0,0,0,0,0,0.094l0.188,13.265C264.344,272.896,264.344,269.323,264.25,263.114z"/>
	<path d="M265.098,196.325c0,0.376,0,0.376,0,0.47C265.002,197.547,265.098,197.924,265.098,196.325z"/>
	<path d="M264.532,207.895c0,0.094,0,0.282,0,0.376C264.532,208.459,264.532,208.271,264.532,207.895z"/>
	<path d="M264.908,201.781c0-0.941-0.094-1.788-0.094-4.892c0.094-2.728,0.094,0,0.188-0.094c-0.094-1.881-0.188-6.679-0.282-0.659
		v0.941c0,4.233-0.188,9.313-0.282,10.912C264.721,206.484,264.814,205.073,264.908,201.781z"/>
	<path d="M264.626,232.824l0.095,11.1l0.188-5.644l-0.094,0.282C264.908,232.259,264.721,233.576,264.626,232.824z"/>
	<polygon points="264.062,293.311 263.874,291.9 264.156,298.297 	"/>
	<polygon points="263.874,310.996 263.968,307.704 263.779,307.233 	"/>
	<path d="M399.429,537.705l-1.411-0.188c-3.291,0.095-5.832,0.095-7.996,0.095C394.725,537.611,399.993,537.894,399.429,537.705z"/>
	<path d="M263.402,455.206c-0.094,4.139-0.094,7.337-0.094,10.253C263.402,460.567,263.591,456.522,263.402,455.206z"/>
	<path d="M687.283,380.231c0-1.977-0.094-2.821-0.094-2.821C687.189,379.479,687.189,380.702,687.283,380.231z"/>
	<path d="M263.309,465.459c-0.094,3.669-0.188,7.809,0,11.854c0-0.754,0-1.411,0.094-2.164
		C263.309,472.139,263.215,469.128,263.309,465.459z"/>
	<path d="M299.809,25.681c1.317,0,3.48,0,5.551-0.094C304.418,25.587,302.725,25.587,299.809,25.681z"/>
	<path d="M263.402,365.651C263.402,362.641,263.402,365.181,263.402,365.651L263.402,365.651z"/>
	<path d="M264.344,350.788c0,0.658,0,1.129,0.094,1.223C264.438,351.822,264.344,351.353,264.344,350.788z"/>
	<path d="M263.591,361.041c0,0.753,0,1.411,0,1.976C263.498,362.358,263.498,361.7,263.591,361.041z"/>
	<path d="M263.498,363.77c0,0.377,0,0.754,0,1.224C263.498,364.71,263.498,364.334,263.498,363.77z"/>
	<path d="M263.498,363.017L263.498,363.017L263.498,363.017z"/>
	<path d="M263.498,363.017c0,0.282,0,0.472,0,0.753C263.498,363.581,263.498,363.299,263.498,363.017z"/>
	<path d="M263.498,361.7c0-1.035,0-1.882,0-2.634C263.498,358.596,263.402,358.972,263.498,361.7z"/>
	<path d="M263.402,365.651c0,0.939,0,2.163,0,4.231c0-1.787,0-3.386,0.095-4.984C263.402,365.557,263.402,365.839,263.402,365.651z"
		/>
	<path d="M532.632,23.33c-0.094,0-0.282,0-0.562,0C532.256,23.33,532.444,23.33,532.632,23.33z"/>
	<path d="M687.472,437.991c0.096-1.788,0-7.057-0.094-13.076c-0.095-6.021-0.188-12.888,0-17.779
		c-0.095,2.164-0.282,4.327-0.376-0.657c-0.095-7.62,0.47-20.695,0-27.562c0-0.94,0.094-1.317,0.094-1.411
		c-0.094-5.832-0.188-19.002-0.377-22.481c0.377-2.729,0.283-11.76,0.188-20.227c-0.095-8.372-0.282-16.086,0.095-16.086
		l-0.188-17.968l0.094,0.471c0-11.478-0.188-15.521-0.376-19.565c0-2.635,0.094-0.754,0.188-0.472
		c0.095-16.838,0-18.438-0.376-32.548l0.188-1.505c-0.188-3.857,0.282-24.27,0-40.732c0,0.188,0.094,0.47,0.094,1.787
		c-0.282-18.532,0.564-44.401-0.282-51.174l-0.281-12.229c0.094,15.804-0.377-2.352-0.472,4.139
		c-0.094-6.208,0.095-16.086,0.188-8.466v1.223c0.563,2.822-0.188-19.661,0.095-19.19c-0.471-31.137-1.035-61.522-1.506-90.684
		l-0.282,3.386l-0.094-4.986c0-0.846,0.094-1.599,0.188-2.445c0-0.376,0.188-0.753,0.188-1.411c0-0.564-0.094-1.035-0.282-1.411
		c-0.47-1.411-1.034-2.164-0.752-1.881c0.094,0.188,0.47,0.564,0.847,1.505c0.188,0.47,0.376,1.035,0.471,1.976
		c0,0.188,0,0.564-0.095,0.659c0,0.188-0.094,0.376-0.094,0.564c-0.095,0.376-0.095,0.752-0.095,1.223
		c0.095-0.47,0.188-0.941,0.188-1.505c0-0.188,0.095-0.188,0.095-0.471c0-0.188,0-0.47,0-0.658c0-0.376-0.095-0.847-0.282-1.129
		c-0.47-1.505-1.41-2.728-2.445-3.763c-0.282-0.282-0.563-0.471-0.847-0.659c-0.376-0.188-0.848-0.376-1.224-0.376
		c-0.753-0.094-1.316,0-1.788,0.094c-0.939,0.188-1.505,0.47-1.505,0.564c-0.376,0.188-0.752,0.282-1.129,0.47
		c-0.188,0.094-0.282,0.188-0.47,0.188c-0.095,0.094-0.188,0.094-0.282,0.094c-0.563,0-1.035,0-1.506,0c-0.47,0-0.752,0-1.034,0
		c-0.471,0-0.563,0-0.377-0.094c0.188,0,0.564-0.094,1.129-0.094c0.282,0,0.564,0,0.941-0.094c0.188,0,0.376,0,0.47,0h0.282
		c0.095,0,0.095-0.094,0.188-0.094l0.472-0.188c0.282-0.188,0.563-0.282,0.847-0.376c0.564-0.282,1.129-0.376,1.505-0.563
		c0.376-0.094,0.658-0.188,0.753-0.188c0,0-0.188,0-0.753,0.094c-0.563,0.188-1.129,0.376-1.692,0.564
		c-0.282,0.094-0.564,0.188-0.848,0.376l-0.376,0.188l-0.188,0.094l-2.353,0.094h1.316c-4.797,0.188-5.174,0.376-13.922,0.471
		c-5.551,0-2.822-0.188-4.986-0.094c0,0-0.188,0-0.658,0c-0.47,0-1.315,0-2.634,0.094l-12.794,0.188l5.174,0.188
		c-5.644,0.188-12.041,0.188-6.114,0.376c-4.326-0.188-16.273,0-27.845,0.188c-11.57,0.188-22.671,0.282-25.305,0.282
		c-7.996,0.282-15.804,0.376-25.493,0.47c2.446,0,3.856,0.282-4.516,0.376c3.011-0.659-14.486-0.094-21.637-0.47
		c3.292,0.188-23.987,0.282-14.862,0.658c-6.961,0-0.472-0.188-5.738-0.282c-16.65,0.47-36.688,0.282-57.289,0.564
		c-0.282,0.094,3.104,0.188-1.316,0.376l-10.911-0.282c-4.045,0.094-3.764,0.564-11.194,0.282c1.034,0.094,2.634,0.188-0.095,0.188
		c-10.065,0-20.318,0.094-30.572,0.188c-10.254,0.094-20.603,0.188-30.949,0.282c-20.694,0.188-41.485,0.376-61.991,0.094
		c5.549,0.094,1.881,0.188-2.353,0.188c2.728,0-0.095,0.188,0.472,0.282c-5.738-0.094-11.478-0.094-17.121,0
		c-3.104,0.376-18.344,0.376-20.132,0.753l5.456-0.188c-3.857,0.282-0.752,0.376,2.916,0.564c-5.456,0.094-9.689,0.188-9.689,0.188
		c-3.197-0.094-2.633,5.55-2.633,5.55s0.752,207.331,0.846,242.983c0-0.752,0-1.411,0-2.069l-0.094,0.282
		c0,3.763,0.094,6.49,0.094,3.574c0,1.788,0,2.916,0,3.293c0,0.847,0,3.292-0.094,6.961c-0.095-6.209-0.752-1.881-1.129,3.763
		c0.094,0.188,0.188,0.188,0.188,7.057c0.094-2.353,0.376-15.146,0.47-9.407c0,9.03-0.094,7.433-0.282,11.759
		c0.282-3.387,0.282,8.938,0.471,9.689c-0.094,7.996-0.094,16.744-0.188,25.587v0.376l-0.094,5.269l0.094-2.917
		c-0.094,9.597-0.188,19.003-0.188,26.998c0-0.846-0.094-1.034-0.094-0.094v5.08c-0.281,4.703-0.188-9.596-0.375-3.104
		c-0.095-6.866-0.283-14.485-0.095-24.082l0.282-1.786c-0.094,0.188-0.188,6.303-0.188,8.937
		c-0.095-4.045,0.469-14.769,0.188-19.097l-0.282,6.772c-0.094-6.867-0.282-15.333-0.188-23.8c-0.281,3.857,0,1.977-0.375,7.996
		c0.471-5.08-0.188,19.755,0.281,14.11c-0.375,5.833-0.188,10.348-0.563,18.062c0.094-0.282,0.188-2.916,0.094,4.233
		c0,0.281,0.095,1.129,0.095,1.6c0,0.188,0,0.282,0,0.47c0-0.188,0-0.281,0-0.376c0,0.282,0,0.376,0-0.188
		c0.094-1.693,0.094-3.104,0.188-3.669c0.188,3.575,0.094,14.958,0.188,18.721c-0.094,4.232-0.094-1.788-0.188,0.564l0.094,5.737
		c-0.188,0.564-0.471,11.288-0.471,1.224c0,3.01-0.094,6.021-0.094,9.029c-0.095,5.27-0.188,12.605-0.095,17.121
		c0,4.233,0.188,10.725,0.095,7.057l0.094,14.109l-0.094,0.095c0,13.923,0.375,28.69,0,44.59c0.094,4.703,0.094,9.501,0.094,17.401
		l-0.188,1.505c0.095,6.021-0.282,18.062,0,20.696c-0.094,1.6-0.188,4.232-0.188,7.525c0,3.198,0,6.961,0.282,11.006
		c0,0.471,0.094,1.035,0.094,1.505l0.094,0.753c0.094,0.282,0.188,0.658,0.282,1.035c0.282,0.752,0.847,1.505,1.505,1.881
		c0.281,0.188,0.658,0.377,0.939,0.471c0.283,0.095,0.564,0.188,0.848,0.282c2.258,0.47,4.232,0.376,6.115,0.376
		c1.881,0,3.668-0.094,5.268-0.094s3.199,0,4.516,0l0.377-0.282c7.243,0,14.299,0,23.33-0.282l-0.564-0.188
		c1.976-0.094,4.232-0.188,6.679-0.376c1.224-0.094,2.446-0.188,3.763-0.188c1.317,0,2.635-0.094,4.045-0.094
		c5.551-0.094,11.666,0,17.875-0.094c-0.848,0.094-3.951,0.094-6.209,0c14.769,0.376,31.043-0.377,44.4-0.282
		c3.292-0.095,5.738-0.188,8.09-0.188c-0.281,0-0.564,0-0.846,0c0.376,0,0.846,0,1.316,0c1.506,0,3.01,0,4.609,0
		c-1.411,0-2.729-0.095-3.857,0c2.541-0.095,6.492-0.188,10.254-0.282l1.6,0.188c0.282,0,0.564,0,0.847,0
		c3.764,0.095,3.011-0.095,1.034-0.281c1.882-0.096,3.669-0.096,5.08-0.188c3.011,0.376,9.972-0.188,14.205,0.188
		c2.352-0.188,16.744-0.188,20.507-0.472c4.233,0,8.467,0.095,12.229,0l1.787,0.282l9.312-0.376c5.645,0.188,7.996,0.282,2.352,0.47
		c13.548-0.281,11.008-0.094,22.483-0.376l-0.564,0.188c4.14,0,10.725-0.188,13.171,0.094c4.608,0.282,15.991,0.282,29.16,0.188
		c6.585-0.096,13.642-0.188,20.509-0.282c6.866-0.188,13.546,0,19.473,0.094c-4.609-0.564,11.006,0.282,11.947-0.188
		c1.41,0.095,4.703,0.188,0.846,0.281c12.041-0.188,18.156-0.094,26.436-0.47c1.41,0.094-2.54,0.188-1.317,0.282
		c0.939,0,3.855-0.095,5.08,0c1.223,0.094-1.788,0.094-3.669,0.094c6.113,0,9.501,0,11.477-0.094
		c1.977-0.095,2.54-0.282,2.916-0.471c6.209,0.375,9.313,0.471,13.828,0.375c2.164,0.188,5.738,0.472-1.881,0.188
		c4.327,0.188,26.245,1.317,26.716,1.035c1.316,0.094,6.021,0.188,7.149,0.188c4.797,0.096,7.524-0.094,10.158-0.563
		c1.317-0.282,2.635-0.564,4.141-1.505c0.752-0.472,1.505-1.13,1.976-2.069c0.471-0.94,0.752-2.164,0.752-3.387
		c-0.094,0.939-0.188,1.882-0.563,2.729c0.563-2.07,0.282-4.046,0.377-6.491c0-2.445,0.094-5.361,0.094-9.219v0.188
		c0.376-17.496-0.094-7.525,0.376-24.834l-0.188,0.939c-0.471-1.599,0.377-15.333,0.281-25.397l-0.188,3.668
		c-0.095-5.456,0.752-15.333,0.847-20.789c0.094-1.224,0.094,1.881,0.094,3.573c0.376-14.393-0.281-1.881-0.281-12.604
		C687.189,440.625,687.378,445.141,687.472,437.991z M653.418,21.73h1.977C650.973,21.918,652.195,21.824,653.418,21.73z
		 M265.379,288.23c0,3.387-0.094,7.619-0.094,12.512C265.189,297.826,265.189,292.841,265.379,288.23z M265.189,302.529
		c0,0,0,0,0,0.188c0,0.659,0,1.225,0,1.883V302.529z M263.402,399.14c0,0.096,0,0.188,0,0.282
		C263.309,404.312,263.402,402.62,263.402,399.14z M264.156,434.698c0.094-20.884-0.658-17.779-0.377-35.088
		c0.283-6.867,0.471-0.282,0.658-1.787c0.095,9.029-0.188,13.922-0.188,20.037l0.094-7.526c0,1.506,0.094,3.951,0.094,6.397
		c0,1.315,0,2.634,0,4.045c0,0.657,0,1.223,0,1.786c0-0.188,0-0.471,0-0.657c0,12.604,0,26.998,0,39.979
		c-0.094-0.847-0.094-1.882-0.188-3.011c-0.188-4.327-0.282-10.348-0.376-17.309C263.874,430.371,264.156,436.674,264.156,434.698z
		 M264.438,508.167c0,2.729,0,5.833,0,8.937c-0.094-2.444-0.188-5.174-0.188-7.524C264.344,509.955,264.438,508.92,264.438,508.167z
		 M298.209,538.552c-0.564,0-4.704-0.094-9.125-0.188c-4.421-0.095-9.125-0.282-10.912-0.377c-0.564,0-0.941-0.095-1.129-0.095
		c0.188,0,0.376,0,0.564,0c2.068,0,5.832,0,10.348,0.095l0.188,0.377l1.317-0.377c3.386,0,7.056,0,10.724-0.095
		C300.186,538.176,299.525,538.458,298.209,538.552z M350.512,537.423l-9.877,0.188c2.635-0.188,7.244-0.472,12.417-0.753
		c5.644,0,11.194,0,16.368-0.095c-4.704,0.376-10.441,0.658-16.368,0.753L350.512,537.423z M439.597,536.765
		c0.282,0,0.564-0.094,0.658-0.094C440.35,536.671,441.479,536.671,439.597,536.765z M463.867,536.576
		c0.658-0.094,0.376-0.282-0.096-0.376c2.636,0,5.27,0,7.81,0L463.867,536.576z M625.762,536.482
		c-1.505-0.095-0.281-0.188,1.787-0.188c-0.847,0-1.599,0-2.258,0c-1.787-0.094-2.445-0.188-2.445-0.282
		c2.069,0.096,4.14,0.096,6.114,0.188c-0.47,0-1.034,0-1.505,0c0.939,0,1.976,0,3.104,0c0.848,0,1.693,0.094,2.445,0.094
		c1.977,0.188,3.669,0.282,4.893,0.377C633.946,536.671,629.9,536.576,625.762,536.482z"/>
	<path d="M263.591,340.628c0-3.198,0.095-4.327,0.095-5.926c0,0.094-0.095,1.034-0.095,0.094V340.628z"/>
	<path d="M263.591,334.796v-0.753C263.591,334.325,263.591,334.607,263.591,334.796z"/>
	<path d="M264.344,327.929c0.188-0.563,0.188-4.703,0.188-9.312c0,0.282,0,0.563,0,0.847
		C264.25,318.052,264.344,323.037,264.344,327.929z"/>
	<path d="M264.626,313.254c-0.094-0.563,0,1.693,0,4.327C264.532,316.076,264.532,314.665,264.626,313.254z"/>
	<path d="M263.402,373.082c-0.188-2.445,0.188,14.676,0.188,2.635C263.591,373.459,263.309,374.306,263.402,373.082z"/>
	<polygon points="265.002,324.166 264.814,325.859 265.002,328.493 	"/>
	<path d="M264.532,360.76l0.094-7.432c0,0.094-0.094-0.847-0.094-1.977c0,2.259-0.095,4.703-0.095,6.49
		C264.532,359.631,264.532,360.854,264.532,360.76z"/>
	<path d="M264.626,345.426c0,1.317,0,4.045,0,5.927C264.626,349.001,264.721,346.743,264.626,345.426z"/>
	<path d="M264.438,444.105c-0.094-1.977-0.094-4.893-0.188-3.67l0.094,8.091C264.438,449.373,264.532,447.116,264.438,444.105z"/>
	<polygon points="277.326,25.869 271.117,25.869 275.068,25.963 	"/>
	<path d="M263.874,29.914c0.188-1.035,0.659-2.163,1.224-2.634c-0.564,0.376-0.941,0.941-1.224,1.411
		c-0.376,1.505-0.282,2.728-0.095,4.139C263.686,32.078,263.686,30.949,263.874,29.914z"/>
</g>
</svg>
