<?xml version="1.0" encoding="utf-8"?>
<!-- Generator: Adobe Illustrator 16.0.0, SVG Export Plug-In . SVG Version: 6.00 Build 0)  -->
<!DOCTYPE svg PUBLIC "-//W3C//DTD SVG 1.1//EN" "http://www.w3.org/Graphics/SVG/1.1/DTD/svg11.dtd">
<svg version="1.1" id="Calque_1" xmlns="http://www.w3.org/2000/svg" xmlns:xlink="http://www.w3.org/1999/xlink" x="0px" y="0px"
	 width="580px" height="560px" viewBox="189.5 0 580 560" enable-background="new 189.5 0 580 560" xml:space="preserve">
<path fill="#FFFFFF" stroke="#000000" stroke-miterlimit="10" d="M195.579,33.395c0,0,1.035-3.763,2.258-4.986
	c1.223-1.223,2.352-2.446,2.446-2.822c0.094-0.376-0.188-1.975,0.376-2.352c0,0,0.471-0.094,1.223,0
	c0.659,0.094,2.352-1.035,2.916-1.317s3.01-1.129,3.669-1.223c0.659-0.094,1.976-0.564,2.822-0.282
	c0.846,0.282,2.069,0.188,2.54-0.376c0.471-0.564,1.881,0.094,2.258,0.094c0.376,0.094,1.881,0.376,2.352,0.094
	c0.471-0.188,1.6-0.659,2.54-0.282c0.941,0.282,2.916,0.094,3.857,0.094c1.035,0.094,2.916-0.094,3.669,0
	c0.658,0.094,1.317-0.188,1.317,0.188s0.47,7.996,0.47,9.219c0,1.223,0.282,1.317,0,1.881s-2.54,1.505-3.48,2.07
	c-0.941,0.564-5.644,4.045-5.833,9.125c-0.188,5.08,0.659,8.278,1.129,9.031c0.47,0.753,2.822,2.164,2.822,2.164
	s0.847,0,1.505,0.941c0.659,0.847,1.788,0.659,2.164,1.317c0.376,0.659,1.788,1.129,2.164,1.223
	c0.376,0.094,1.035,0.188,1.317,0.376c0.282,0.188,1.128-0.094,1.505,0c0.47,0.094,2.54,0.753,3.198,0.282
	c0.659-0.376,2.917-2.164,3.387-2.164s1.317,0,1.881-0.376c0.564-0.376,1.223-1.693,1.881-2.352
	c0.752-0.658,1.317-0.376,1.505-1.505c0.188-1.129,0.47-1.693,0.658-3.01c0.188-1.317,0.282-4.609,0.282-4.609s0.188-2.258,0-3.387
	c-0.188-1.035-1.317-3.292-1.881-3.951c-0.564-0.658-2.446-2.446-3.198-2.634s-1.881-1.035-2.54-1.317
	c-0.658-0.188-1.317-1.599-1.223-2.07c0.094-0.47,0.47-2.822,0.376-3.856c-0.188-1.035,0.188-3.951,0.282-4.892
	c0.094-0.941-0.094-2.164,0.376-2.07s2.54,0.282,2.916,0.094c0.376-0.282,1.317-1.223,2.258-1.035
	c0.94,0.188,3.763,0.376,4.139,0.376c0.376,0.094,0.47,1.129,1.317,1.317c0.376,0.094,0.376-1.317,1.035-1.223
	c0.752,0.094,2.916-0.282,3.857-0.188c0.941,0.094,2.822-0.188,3.575-0.282c0.752-0.094,1.693-0.752,3.104-0.658
	c1.411,0.094,1.693-0.47,2.728-0.282c1.035,0.188,2.352-0.094,3.104-0.282c0.753-0.282,2.728-0.188,3.669-0.094
	c0.94,0,3.951,1.129,4.986,1.505c1.035,0.282,3.104,0.376,4.045,0.47c0.94,0.188,2.069,0.752,2.728,1.129
	c0.564,0.376,1.411,0.941,1.411,1.317c0,0.471-0.188,2.352-0.188,3.104c0,0.752,0,3.668,0,4.421c0,0.752,0.094,1.317-0.188,1.693
	c-0.282,0.376-1.505,0.564-1.976,0.753c-0.47,0.094-1.411,1.035-2.352,1.881c-0.941,0.847-2.164,1.411-2.446,2.446
	s-1.223,1.599-1.411,2.634s-0.847,1.976-1.035,3.104c-0.188,1.129-0.094,2.728,0,3.668c0.094,0.941,0.376,2.634,0.47,3.01
	c0.188,0.376,0.752,0.376,0.752,0.847c0.094,0.471-0.094,2.164,0.188,2.446c0.376,0.282,1.787,0.376,2.164,1.223
	c0.376,0.847,0.752,1.223,1.129,1.787c0.376,0.564,2.257,0.941,2.634,0.941c0.376,0,1.035,0,1.411,0.094
	c0.376,0.094,1.881,1.035,2.352,1.035s3.575,0.094,5.174-0.376s4.327-1.693,5.362-2.822c1.035-1.128,2.257-2.257,2.728-2.916
	c0.376-0.658,0.376-1.693,0.752-1.881c0.376-0.188,0.376-0.659,0.752-1.599c0.376-0.941,0.47-2.446,0.376-3.857
	c-0.094-1.505-0.847-3.951-1.411-4.797s-1.693-2.446-2.258-2.917c-0.47-0.376-1.129-1.599-1.693-1.881
	c-0.564-0.376-1.411-0.564-1.693-0.847s-0.47-1.035-0.846-1.035c-0.376-0.094-1.693-0.094-1.693-0.47
	c0-0.282-0.376-3.387-0.094-4.798c0.188-1.411,0.094-2.728,0.188-3.668c0.094-0.941,0.094-1.693,0.564-1.693
	c0.471,0,1.317-0.941,1.881-1.317c0.564-0.376,2.258-0.847,2.258-0.847s2.164-0.847,2.54-0.753c0.376,0.094,0.47,0.471,0.94,0.471
	c0.471,0,1.317-0.188,1.976,0c0.659,0.188,4.045,1.129,4.892,1.223c0.847,0,3.292-0.282,3.951-0.188
	c0.658,0.094,3.763,0.094,4.609,0.094c0.752,0,3.387-0.847,4.139-1.317c0.752-0.376,0.658-1.128,1.787-0.94s2.164,0.188,2.917,0.188
	c0.752,0,2.54-0.282,3.856-0.094c1.317,0.188,2.729,0.094,3.199,0.094s1.035-0.47,1.881-0.376c0.847,0.094,1.787,0.376,2.446,0.47
	s1.223-0.941,1.787-0.564c0.471,0.376,0.188,1.223,0.188,1.976c0,0.752,0.376,0.564,0.188,1.787
	c-0.188,1.223-0.188,2.352-0.282,3.48c0,1.223,0.094,1.505,0.094,2.822s0.282,2.822,0.188,3.575
	c-0.094,0.752-0.564,1.881-1.129,1.788c-0.564-0.094-2.446,1.035-2.822,1.128c-0.471,0.094-1.6-0.47-1.693,0.282
	c-0.094,0.847-0.941,1.411-1.223,1.976c-0.376,0.564-1.411,1.223-1.505,1.788c-0.094,0.564-1.035,2.257-1.035,2.728
	c0,0.47,0.282,1.975,0.282,3.01c0,1.035-0.094,2.257-0.188,2.728c-0.094,0.47,0.094,2.164,0.752,2.916
	c0.659,0.752,1.317,0.659,1.223,1.035c0,0.471,0.094,1.035,0.376,1.317c0.282,0.376,0.47,0.847,1.035,1.411s0.752,0.282,1.411,0.659
	c0.658,0.376,1.599,0.847,1.881,1.411s0.564,0.47,1.411,0.847c0.846,0.376,2.634,0.47,3.574,0.564
	c0.941,0.094,3.104-0.282,4.328-0.376c1.223-0.094,2.446-0.847,2.916-0.847s3.01-1.693,3.951-2.634
	c0.847-1.035,1.6-3.387,1.882-3.669s1.035-2.164,1.223-3.387c0.188-1.223-0.47-2.352-0.47-3.668c0-1.223-0.094-1.976-0.659-2.258
	s-0.658-0.847-0.752-1.881c-0.094-1.129-1.223-2.634-2.164-3.198c-0.941-0.564-1.787-1.129-2.352-1.223
	c-0.564,0-1.035-0.376-1.788-0.564c-0.659-0.188-1.411-1.881-1.411-2.446s0.094-4.515,0.188-5.362c0.094-0.753,0-1.693,0.094-2.164
	c0-0.471-0.658-0.376-0.658-1.129s0.847-4.327,1.035-5.08c0.188-0.658,1.035-0.564,2.069-0.47c0.941,0.094,2.917,0,3.857,0.188
	c0.941,0.188,3.104-0.188,4.045-0.094c0.941,0.094,4.328,0.564,5.174,0.47c0.846-0.094,1.787-0.282,2.54-0.188
	c0.659,0.094,1.505-0.376,2.07-0.376c0.47,0,1.411-0.847,1.975-0.658c0.659,0.094,1.223-0.659,1.6-0.471
	c0.376,0.094,0.658,0.376,1.129,0.471c0.47,0,2.916,0,3.668,0.094c0.752,0.094,1.693,0.282,2.352,0.376
	c0.753,0.094,1.129-0.376,1.6-0.282c0.47,0.094,1.223,0.47,1.881,0.659c0.658,0.188,2.352,0.564,2.916,0.752
	c0.564,0.188,2.164,0.564,2.822,0.658c0.658,0.094,2.822,0.094,3.386,0.188c0.471,0.094,0.564,0.376,0.941,0.846
	c0.376,0.471,0.752,0.471,0.847,1.129c0.094,0.659,0.282,1.693,0.188,2.352c-0.094,0.658,0.094,1.881-0.094,3.104
	c-0.188,1.223-0.094,1.882-0.094,3.292c0,1.411,0,1.976-0.188,2.164c-0.188,0.188-1.505,0.659-1.6,1.129
	c-0.094,0.471-0.752,1.317,0,1.411c0.659,0.094,2.07-0.47,2.164-0.752c0.094-0.282,0.188,0.188,0.094,1.223
	c-0.094,1.035,0,1.6-0.376,1.881c-0.376,0.282-1.882,1.129-2.258,1.882c-0.376,0.752-0.847,1.317-1.599,1.693
	c-0.659,0.376-1.411,1.223-1.693,1.128c-0.282,0-0.847-0.282-0.941,0.564c-0.094,0.847-0.847,0.752-0.847,1.693
	c0,0.847,0.564,1.129,0.564,1.976s0.376,2.258,0.188,3.01c-0.094,0.847-0.094,1.976-0.188,2.634
	c-0.094,0.659-0.282,2.446,0.564,2.822c0.847,0.376,1.411,0.564,1.599,0.188c0.188-0.47,0.753-1.223,0.753-0.658
	c0.094,0.564,0.658,0.94,1.035,1.599c0.376,0.658,0.658,1.505,1.505,1.599s1.976,0.282,2.258,0.282s2.164,0.94,3.198,0.659
	c1.129-0.376,2.54-0.564,2.916-0.564c0.377,0,2.635-0.941,3.48-0.847c0.847,0.094,1.882-0.282,2.164-0.659s0.564-2.446,1.411-2.54
	c0.847-0.094,1.317,0.094,1.411-0.658s-0.282-2.164,0.188-2.822c0.376-0.659,0.94,0.376,1.316-2.352
	c0.471-2.728-0.094-4.045-0.282-5.174c-0.188-1.129-0.94-1.6-1.316-2.446c-0.377-0.753-0.659-2.54-0.659-2.54l-1.505-1.411
	c0,0,0.188-2.54-0.94-1.317c-1.129,1.223-2.446-0.188-2.352-1.129c0.188-0.941-1.035-0.847-1.317-1.317
	c-0.282-0.471-0.753-1.223-0.658-2.258c0.094-1.035,0.282-3.575,0.094-4.139s-0.376-0.659,0-1.223
	c0.471-0.564,0.376-0.847,0.471-1.599c0.094-0.753-0.753-0.753-0.659-1.882c0.188-1.035,1.224-1.317,1.976-1.599
	c0.753-0.282,2.916-0.658,3.669-0.658s2.163,0.282,2.54,0.282c0.376,0,0.94-0.941,1.693-0.564c0.752,0.282,2.822,0.564,3.198,0.188
	c0.376-0.47,0.564-1.035,1.034-0.941c0.564,0.094,1.6-0.094,1.788-0.658c0.188-0.659,1.223-1.505,1.976-1.411
	c0.658,0.094,2.634,0,2.916,0.094c0.282,0.094,2.069-0.471,2.916-0.282c0.753,0.188,2.069,0.47,2.728,0.188
	c0.564-0.188,1.317-0.376,2.258-0.188c0.941,0.188,2.353,0.282,2.822,0.282c0.564,0,1.693-0.564,2.54-0.376
	c0.847,0.094,2.069,0.47,2.729,0.47c0.658,0,0.846-0.658,1.505-0.564c0.658,0.094,2.069,0.094,2.916,0.188
	c0.94,0.094,1.787-0.282,2.634-0.282c0.847,0.094,1.787-0.188,1.6,0.752c-0.282,0.941,0,3.575-0.095,4.704
	c-0.188,1.129,0.095,2.258-0.094,3.292s0.188,2.257,0,3.386c-0.094,1.129,0.188,3.104,0,4.139c-0.094,1.129,0.094,1.505-1.223,1.881
	c-1.317,0.376-2.352,1.223-2.729,1.599c-0.376,0.376-1.976,2.258-2.352,2.446c-0.376,0.188-1.223,0.941-1.505,1.976
	c-0.282,1.035-0.753,2.258-0.847,3.198c-0.188,0.941,0.094,3.293-0.094,4.139c-0.188,0.941-0.095,2.728,0.282,3.199
	c0.376,0.47,1.034,0.47,1.034,1.129c0,0.658,0.564,1.411,1.129,1.787s0.658,0.941,0.847,1.317c0.282,0.376,1.129,0,1.505,1.317
	c0.471,1.317,1.882,1.035,2.634,1.223c0.753,0.094,0.753,0.847,1.317,1.317s1.129,0.376,2.634,0.564
	c1.506,0.188,2.258-1.129,2.916-1.035c0.659,0.094,1.976,0.188,2.635-0.094c0.658-0.376,1.223-0.94,1.881-0.847
	c0.658,0.094,2.164-0.752,2.54-1.223c0.471-0.376,1.035-0.471,1.411-1.129c0.376-0.659,1.693-2.164,1.505-3.01
	s0.376-0.847,0.753-2.822c0.282-1.975,0.94-2.446,0.47-4.609c-0.47-2.164-0.188-3.763-1.223-4.609
	c-1.034-0.847-1.034-1.881-2.163-2.352c-1.129-0.47-2.258-1.787-2.729-2.163c-0.471-0.376-0.752-1.035-1.6-1.129
	c-0.94-0.188-1.034-0.471-1.505-0.941c-0.47-0.47-0.47-2.164-0.282-3.575c0.188-1.411,0.377-2.728,0.471-3.292
	s-0.471-1.129-0.376-1.599c0.094-0.47,0.376-2.446,0.282-3.575c-0.095-1.223,0.094-3.668,0.188-4.139
	c0.095-0.47,1.411-1.599,1.882-1.599c0.47,0,1.881,0,2.54,0.094c0.564,0.094,1.881-0.941,2.54-0.847
	c0.658,0.094,3.763,0.847,4.045,0.658c0.282-0.188,0.282-0.752,1.411-0.47c1.034,0.188,2.539,0.376,3.292,0.564
	c0.847,0.094,1.505-0.188,2.728,0.188c1.224,0.376,2.917,0.753,3.857,0.847c0.94,0.188,2.822,0.282,3.763,0.753
	c0.94,0.376,3.951,1.128,5.174,1.223c1.223,0.188,3.198-0.188,4.14,0c1.034,0.188,3.01-0.094,3.763,0.094
	c0.752,0.188,2.54,0.094,2.634,0.376c0.188,0.282,0.282,0.753,0.752,0.753c0.564,0,2.164-0.376,2.54-0.471
	c0.377-0.094,0,0.847-0.094,1.599c-0.094,0.753,1.035,0.471,0.753,2.07s-0.188,3.48-0.282,4.704c0,1.223,0.094,4.045-0.282,4.892
	c-0.377,0.752-1.035,2.069-2.07,1.976c-1.034-0.094-1.223,0.188-1.787,0.94s-0.94-0.188-1.034,0.941
	c-0.188,1.035-0.282,1.975-0.941,1.881c-0.564-0.094-0.564,0-0.752,0.752c-0.188,0.752-0.188,1.693-0.847,2.07
	c-0.658,0.376-1.317,0.282-1.411,1.128c-0.095,0.847,0.47,2.352,0.282,3.481c-0.188,1.129,0.282,1.975,0.094,3.104
	c-0.188,1.129-0.376,2.07,0.377,2.164c0.658,0.094,1.41-0.94,1.316,0.094c-0.188,1.035,0.094,1.881,0.188,2.258
	c0.094,0.376,1.599,1.975,1.787,2.352s0.753,1.599,1.505,1.693c0.753,0.094,3.011,0.094,3.198,0.376
	c0.188,0.282,1.224,1.693,1.693,1.693c0.471,0,1.882-0.094,2.352,0c0.471,0.094,1.506,0.188,2.446-0.188s3.574-1.411,4.327-1.411
	s2.069-1.129,2.446-1.976c0.376-0.847,2.163-2.069,2.445-2.728c0.282-0.658,1.411-1.693,1.6-2.916
	c0.188-1.223,0.376-3.198,0.47-4.421c0-1.223,0-2.822-0.47-3.386c-0.377-0.564-1.129-1.223-1.6-2.352
	c-0.471-1.035-0.847-1.787-1.6-2.069c-0.752-0.282-1.41-0.094-1.223-1.129c0.188-1.035-0.564-0.376-1.693-1.035
	c-1.129-0.659-1.316-1.411-1.316-1.411c-0.847-0.564-1.411-0.659-1.411-1.599c0-0.941-0.282-1.693-0.095-3.292
	c0.188-1.599-0.188-2.634,0-3.669c0.188-1.129,0.377-1.505,0.188-1.975c-0.094-0.471-0.188-1.505-0.094-2.446
	c0.188-1.035,0.47-1.505,1.505-1.599c1.035-0.094,2.54,0,3.198,0.094c0.753,0,1.505-0.659,2.634-0.376s2.353-0.752,3.011-0.658
	c0.658,0.094,1.976-0.188,2.634-0.094c0.658,0,2.729-1.129,3.669-1.129s3.292,0.094,4.045,0.188
	c0.753,0.094,3.104-1.411,4.139-1.129c1.035,0.282,3.011,0.564,4.61,1.223c1.599,0.659,3.292,0.282,4.232,0.47
	c0.941,0.188,3.104,0.847,4.609,0.659c1.506-0.188,3.198-0.47,4.045-0.564c0.847,0,2.164-1.693,2.353-0.47
	c0.188,1.035,0.752,1.975,1.034,2.634c0,0.094,0.188,0.188,0.094,0.282c-0.281,0.659-0.564,1.788-0.658,2.54
	s0.094,1.787,0.188,2.164c0,0.376,0.376,0.658,0.188,1.787c-0.188,1.129,0.376,0.753,0.188,2.164
	c-0.188,1.317-0.282,2.822-0.376,3.48c-0.188,0.658-0.753,0.658-1.411,1.129c-0.658,0.376-1.223,1.129-1.505,1.411
	c-0.282,0.376-0.753,0.282-1.411,0.188c-0.564-0.094-1.6-0.188-1.787,1.035c-0.188,1.223-0.095,1.976-0.847,2.069
	c-0.753,0.094-1.506-0.47-1.693,0.471c-0.188,0.94,0.282,1.599-0.095,2.446c-0.282,0.752-0.47,1.035-0.564,1.599
	c-0.094,0.564,0.188,1.505-0.094,2.446s0.188,2.164,0.188,2.822c-0.095,0.659,0.188,1.035,0.188,1.882
	c0.095,0.847,0.659,1.411,1.035,2.164c0.471,0.658,0.94,0.94,1.317,1.975c0.376,1.035,2.163,2.07,2.634,2.258
	c0.376,0.188,2.258,1.129,2.916,1.223s2.352,0.564,2.728,1.129c0.377,0.564,1.6,0.752,2.07,0.376c0.47-0.376,2.163-0.47,2.445-1.317
	s0.847-0.94,1.129-0.658c0.377,0.282,1.223-0.282,2.164-0.282c0.847,0.094,2.352-0.282,2.634-1.035
	c0.282-0.752,0.94-2.164,1.693-2.634c0.752-0.47,1.034,0,1.129-0.564c0.094-0.564,0.47-1.787,0.658-2.164
	c0.282-0.376,0.376-1.599,0.564-2.728s0.658-2.352,0.564-2.916c-0.188-0.564-0.188-1.223-0.564-2.164
	c-0.282-0.94-0.847-1.035-1.035-1.975c-0.188-1.035-0.188-1.317-0.94-1.599c-0.752-0.282-1.035-0.282-1.787-0.471
	c-0.753-0.094-1.129,0.376-1.317,0.094c-0.282-0.282,0.471-1.317,0.564-1.976c0.095-0.658-0.188-1.223-0.752-1.411
	c-0.564-0.188-0.847-0.752-1.317-1.128c-0.471-0.376-1.505-0.941-1.787-1.035c-0.282-0.094-0.094-0.47,0.094-1.787
	c0.188-1.223,0.282-3.01,0.188-3.951c-0.095-0.94-0.095-2.164,0.094-3.01c0.188-0.94,0-1.599,0.095-2.728
	c0-1.129-0.095-0.752,0.094-2.069c0.188-1.317,0.282-2.07,0.282-2.352c0-0.282-0.376-0.376-0.471-0.659
	c-0.094-0.376,1.035-0.564,1.505-0.564c0.377,0,1.506-0.188,1.693-0.564c0.188-0.47,0.188-1.693,0.847-1.599
	c0.659,0.094,2.352,0.282,3.011,0.376c0.658,0.094,1.693-0.282,1.787,0.094s0.658,0.659,1.223,0.847
	c0.564,0.094,2.916,0.282,3.387,0.188c0.471-0.094,3.104-0.47,3.669-0.47s1.976-0.188,2.54-0.094
	c0.564,0.094,1.599,0.188,1.787,0.094s0.188-0.941,0.564-0.941c0.376,0.094,1.411,0.188,2.069,0.282
	c0.658,0.094,1.882-0.094,2.729,0.376s1.599,0.659,2.163,0.659c0.471,0.094,2.634,0,3.387-0.094s1.787-0.376,1.881,0
	c0.095,0.376,0.377,0.752,0.753,0.847s1.317,0.376,1.6-0.094c0.282-0.47,0.847-0.376,1.316-0.282
	c0.471,0.094,1.317,0.376,2.446,0.471c1.129,0.094,1.223-0.564,2.258-0.564c1.034,0.094,2.069,0.564,2.634,0.752
	c0.564,0.282,0.753,0.376,0.564,1.787c-0.188,1.317,0.376,2.258,0.282,2.917c-0.094,0.658-0.188,1.411-0.282,2.257
	c-0.095,0.847,0,1.411,0.094,2.728c0.188,1.317,0,1.693,0.095,3.104c0.094,1.411,0.281,1.129,0.094,2.446
	c-0.188,1.317,0.094,1.599-1.223,1.599c-1.317,0-1.6,0.094-2.07,0.659c-0.564,0.564-0.658,1.317-1.505,1.976
	c-0.847,0.658-1.411,1.411-1.882,1.411c-0.47,0-1.316,0.094-1.505,0.753c-0.188,0.658-0.188,1.411-0.282,2.164
	c-0.094,0.752-0.188,1.317-0.752,1.223c-0.564-0.094-0.564,0.376-0.659,1.035c-0.094,0.564,0.188,2.446,0.095,3.293
	c-0.095,0.752-0.095,1.693-0.095,2.728c0,1.035,0.847,1.976,1.129,2.729c0.282,0.752,0.564,1.128,0.753,1.787
	c0.188,0.752,0.658,0.564,1.223,1.223c0.564,0.659,1.223,1.882,1.6,2.164c0.376,0.282,1.411,0.847,2.352,0.94
	c0.847,0.094,0.94-0.282,1.6,0.282c0.564,0.564,1.316,0.564,2.258,0.659c0.94,0,1.41-0.188,2.257,0.094s1.882-0.094,3.387-0.188
	c1.505,0,3.011-0.47,3.198-0.752c0.188-0.282,1.317-1.599,2.164-1.976c0.752-0.376,1.599-1.223,2.258-2.164
	c0.658-0.941,1.411-2.258,1.599-3.292c0.188-1.035,0.471-2.822,0.564-3.763c0.095-0.941,0-2.164-0.282-2.822
	s-0.847-1.787-0.94-2.728c-0.094-0.94-0.94-2.258-1.505-2.634c-0.564-0.376-1.6-0.659-2.07-0.753
	c-0.47-0.094-0.094-1.035-0.188-1.505c-0.094-0.564-0.564,0-1.035-0.282c-0.47-0.282-1.223-0.188-1.316-0.94
	c-0.095-0.753-0.564-1.223-1.035-1.223s-1.223,0.188-1.223-0.282c-0.094-0.47-0.282-2.07,0.188-3.951
	c0.471-1.882-0.188-2.258,0.095-3.669s0.376-2.728,0.47-3.575c0.095-0.847-0.564-0.094-0.376-1.129
	c0.188-1.129,0.188-1.505,0.376-2.822c0.188-1.317-0.376-1.787-0.188-2.54c0.188-0.753,0.752-1.035,1.693-0.941
	c0.94,0.094,2.069,0.282,2.634-0.094c0.564-0.376,2.728,0,3.763,0.282s2.258,0.471,3.01,0.471c0.753,0,1.976,0.188,2.164,0.564
	c0.188,0.376,0.564,1.035,1.035,1.035c0.47,0,1.975,0.188,2.728,0.094c0.753-0.094,0.94-0.376,1.505-0.282
	c0.564,0.094,1.035,0.47,1.6,0.564c0.564,0.094,1.787,0.376,2.729,0.564c0.94,0.188,3.292,0.564,3.668,0.564
	c0.377-0.094,3.011-0.188,3.763-0.282c0.847-0.094,0.941-0.564,1.976-0.282c1.035,0.282,3.104,0.564,3.857,0.658
	c0.752,0.094,2.069,0.659,3.387,0.847c1.316,0.094,2.916,0.094,3.668,0.188c0.753,0.094,0.847-0.282,1.223,0.188
	c0.377,0.471,0.848,0.564,0.753,1.317c-0.094,0.752,0,1.976-0.094,2.728c-0.095,0.752,0.188,3.198,0.188,4.045s0,1.787,0.094,2.352
	c0.188,0.564,0.658,1.976,0.282,2.822s-0.095,0.564-1.6,1.317c-1.505,0.753-2.258,0.847-3.104,1.223
	c-0.752,0.376-1.599,1.599-1.975,1.881c-0.377,0.376-2.07,2.822-2.54,4.609c-0.471,1.787-0.564,2.54-0.659,3.669
	c-0.094,1.035,0.377,1.223,0.188,2.164c-0.188,0.94-0.094,2.634,0.376,3.292c0.471,0.658,0.471,0.188,1.035,1.035
	s1.035,1.129,1.411,1.976c0.376,0.94,0.753,1.223,1.317,1.975c0.563,0.753,1.223,0.564,1.975,0.659
	c0.753,0.094,1.788,0.752,2.164,0.941c0.376,0.188,0.847,0.94,1.881,1.128c1.035,0.188,3.293,0.471,3.857,0.471
	c0.564-0.094,1.034-1.035,1.787-0.941c0.753,0.094,1.411,0.564,2.069,0.094c0.659-0.47,1.035-0.941,1.6-0.847
	s1.317-0.941,2.069-1.223c0.753-0.282,1.129-0.847,1.6-1.505c0.47-0.659,1.034-2.822,1.505-3.104
	c0.471-0.188,0.753-0.564,0.94-1.505c0.094-0.941,0.941-3.387,0.753-4.327c-0.188-0.941-0.564-1.223-0.564-2.164
	c0-0.847-1.035-1.317-1.317-2.352c-0.282-1.129,0.095-1.976-0.282-2.634c-0.376-0.564-1.129-0.941-1.787-1.317
	c-0.658-0.376-1.129-1.128-1.882-1.505c-0.752-0.376-1.223-0.847-1.881-0.94c-0.658-0.094-1.223-0.471-1.693-0.564
	c-0.564-0.094-0.658-1.411-0.471-2.164c0.095-0.752,0.377-2.728,0.564-3.48c0.095-0.752-0.188-2.54-0.188-2.916
	c0-0.47,0.47-2.352,0.564-3.104c0.094-0.752-0.659-0.658-0.564-1.129c0.094-0.47,0.282-2.634,0.564-3.386s1.034-0.094,1.316-0.659
	s0.564-0.752,1.035-0.564c0.471,0.188,2.258,0.564,2.728,0.564c0.471,0.094,1.693,0.47,2.164,0.752
	c0.564,0.376,1.599,0.564,1.881,0.376c0.377-0.188,1.129-0.282,1.882-0.094c0.753,0.094,1.6,0.659,2.069,0.753
	c0.471,0.094,0.94,0.94,1.411,1.035c0.471,0.094,1.976,0,2.352,0.188c0.471,0.188,1.035,0.752,1.693,0.47s1.317-0.47,2.54-0.282
	c1.129,0.188,2.352,0.282,3.387,0.376c1.034,0.094,3.01,0.376,3.763,0.376s2.729,0.094,3.387,0.376s1.223,0.188,1.976,0.282
	c0.752,0.094,1.129,0.847,1.505,0.941s1.505-0.47,2.069-0.376c0.564,0.094,1.035,0.753,1.976,0.941s2.352,0.847,2.916,0.94
	c0.564,0.094,0.847,0.564,1.505,0.471c0.753-0.094,0.753,0.282,1.129,0.376c0.377,0.094,0.659,0,0.471,0.847
	c-0.188,0.941-0.282,0.847-0.094,1.693c0.282,0.847,0,0.941-0.095,1.881c-0.188,0.941-0.282,1.317-0.282,2.258
	c0,0.94-0.658,1.505-0.658,1.505c-0.847-0.094-1.129,0.094-1.223,0.659c-0.095,0.564,0,1.035-0.564,1.129
	c-0.564,0.094-1.035,1.035-1.693,1.223c-0.658,0.188-0.658,0.282-1.317,0.752c-0.658,0.471-1.693,2.164-1.787,2.729
	c-0.094,0.658-0.471,1.505-0.564,1.975c-0.094,0.471-0.188,1.035-0.282,1.599c-0.094,0.564,0.095,0.941,0,1.882
	c-0.094,0.847-0.47,1.693-0.282,2.634c0.094,0.94,0,1.693,0.282,2.352c0.282,0.659,0.564,0.471,0.659,1.505
	c0.094,1.035,0.563,1.223,0.94,1.317c0.376,0.094,1.223,0.188,1.316,0.564c0,0.47,1.129,1.505,1.6,2.164
	c0.47,0.659,1.693,0.564,2.069,0.941c0.377,0.376,0.847,1.128,1.693,1.317c0.847,0.188,1.882,0.282,2.729,0.564
	c0.846,0.282,1.881-0.471,2.539-0.376c0.659,0.094,1.129,0.847,1.788,0.47c0.658-0.47,2.069-1.223,2.821-1.128
	c0.753,0.094,1.506-0.564,2.258-0.941c0.753-0.376,1.693-1.317,1.882-1.788c0.188-0.47-0.188-1.411,0.564-1.411
	c0.753-0.094,1.129-0.282,1.223-0.941c0.188-0.658-0.47-0.847-0.094-1.599c0.376-0.659,1.223,0.282,1.317-0.752
	c0.094-1.035-0.471-1.223-0.377-1.882c0.094-0.658,0.564-1.787,0.658-3.104c0-1.317-0.47-1.317-0.658-2.164
	c-0.282-0.847-0.471-1.129-0.752-1.411c-0.282-0.282-0.564-0.752-0.564-1.317c0.094-0.564,0-1.223-0.471-1.317
	c-0.564-0.094-0.188-0.376-1.129-0.753c-0.94-0.376-0.847-1.317-1.223-1.787c-0.377-0.376-0.188-0.47-0.658-0.564
	c-0.564-0.094-1.129-0.094-1.6-0.564s-0.658-1.035-1.223-1.317s-1.129-0.564-1.411-0.659c-0.282-0.094-0.659-0.658-0.095-2.069
	s0.753-2.164,0.377-2.446c-0.377-0.282-0.564-0.564-0.471-1.411s-0.188-0.941,0.94-1.129c1.035-0.188,1.6-0.564,2.446-0.564
	s3.104-0.188,4.045,0s3.387,1.317,4.985,1.129c1.6-0.188,2.822,0,3.198,0.094c0.377,0.188,1.411,0.847,1.788,1.035
	c0.376,0.188,2.916,0,3.856,0.188c0.941,0.188,1.976-0.376,2.822-0.376c0.847,0.094,1.693-0.659,1.976-0.753
	c0.376,0,1.223-0.658,2.445-0.376c1.224,0.376,1.317,0.752,1.976,0.847c0.658,0.094,1.317,0.564,2.07,0.94
	c0.752,0.376,1.787,0.47,2.352,0.47c0.658,0.094,1.787,0.471,3.01,0.659c1.317,0.188,1.882-0.376,2.729-0.282
	c0.752,0.094,1.505,0.094,1.881,0.282c0.377,0.188,0.847,0.941,0.658,1.787c-0.188,0.847-0.376,2.258-0.376,3.011
	c0,0.658,0.564,0.846,0.282,2.445c-0.282,1.6-0.752,1.411-0.471,2.634c0.283,1.223,0.659,1.035,0.377,2.54
	c-0.282,1.599-0.282,2.069-0.377,2.916c-0.094,0.847,0.564,1.035,0.377,1.881c-0.094,0.847-0.377,3.48-0.564,4.421
	c-0.188,0.94,0.471,1.035,0.282,2.164s-0.188,2.822-0.188,3.575s0.564,0.94,0.471,1.787s-0.377,2.258-0.471,2.728
	c-0.094,0.471,0,1.223,0.282,2.258c0.188,1.035,0.188,1.505,0.095,2.258c-0.095,0.752,0,2.54-0.095,3.668
	c-0.094,1.129,0.282,0.847,0.095,1.976c-0.188,1.129-0.471,1.976-0.283,3.199c0.188,1.223,0.471,1.411,0.377,2.069
	c-0.094,0.658-0.094,3.01-0.188,3.763c-0.094,0.752,0.188,2.352,0.095,3.198c-0.095,0.847,0.094,1.976,0.094,2.822
	s-0.094,2.916-0.282,4.233c-0.188,1.317-0.188,6.208,0.094,7.431c0.282,1.223,0.282,2.54,0.095,3.669
	c-0.188,1.129,0.376,1.693,0.188,2.822c-0.188,1.129-0.471,3.857-0.376,5.456c0.094,1.599-0.095,1.787-0.095,3.386
	c-0.094,1.693,1.224,1.788,1.035,2.917c-0.188,1.128-0.658,2.069-0.94,3.48c-0.188,1.411,0.282,0.941,0.188,2.634
	c-0.095,1.693-0.188,3.387,0,4.798c0.094,1.411-0.188,1.881-0.095,3.292c0.095,1.411,0,3.386,0.095,4.515
	c0.094,1.129,0.188,0.659,0.188,2.446c-0.094,1.788,0.188,3.01,0,4.045c-0.188,1.035,0,1.693,0.188,3.01
	c0.094,1.317,0.094,3.575-0.095,4.892c-0.188,1.317-0.376,8.748-0.376,9.783c0.095,1.035,0.188,5.738,0.282,6.867
	c0.094,1.128,0,6.396-0.094,7.431c-0.094,1.035,0.471,2.352,0.282,3.575c-0.188,1.223-0.376,3.104-0.471,3.575
	c-0.094,0.47,0.188,4.139,0.095,5.362c-0.095,1.223,0.658,2.446,0.47,3.48s0,4.421-0.094,6.208c-0.095,1.881,0,3.198-0.095,4.421
	c-0.094,1.223,0,1.505-0.094,3.292c0,1.787,0.094,1.035-0.094,2.352c-0.188,1.317-0.188,3.763-0.094,5.08
	c0.094,1.317,0.47,1.599,0.281,3.01c-0.188,1.411,0,4.704-0.188,5.738c-0.094,0.94,0.376,4.421,0.188,5.55
	c-0.188,1.035-0.094,2.728-0.094,3.292c-0.094,0.564,0.188,4.421,0.188,5.645c0,1.223,0.376,1.317,0.188,2.446
	c-0.188,1.129-0.095,2.728-0.282,4.233c-0.188,1.505,0,6.397,0,7.526s0.188,1.693,0.188,3.198s0.282,4.797,0,6.397
	c-0.282,1.505-0.282,6.396-0.188,7.337c0.094,0.94,0.282,0.94,0.094,1.975c-0.188,0.941,0.188,4.892-0.094,6.397
	c-0.188,1.411-0.282,5.456-0.282,7.244c0,1.787,0.564,2.916,0.376,3.95c-0.188,1.035-0.188,4.14,0,6.021
	c0.188,1.881,0,2.916,0,4.421c0.094,1.505,0.376,1.034,0.188,2.069c-0.188,1.035-0.564,2.916-0.377,3.951
	c0.188,1.035,0.282,1.223,0.095,2.069c-0.188,0.94-0.377,2.446-0.282,3.763c0.094,1.411,0,1.693,0,3.011
	c0,1.316,0.376,2.445,0.376,3.198s-0.376,2.352-0.564,3.48s0.282,1.693,0.188,2.916c-0.095,1.224-0.282,2.729-0.188,4.045
	c0.094,1.317,0.471,1.411,0.471,2.353c0,1.034,0,1.975-0.095,2.821c-0.094,0.847-0.47,3.764-0.376,5.362
	c0.094,1.6,0.282,4.327,0.094,5.55c-0.188,1.129,0.282,2.635,0.188,3.764c-0.188,1.223-0.376,4.703-0.376,6.114
	s0.282,1.129,0.282,2.634c0,1.411,0.188,2.634,0.094,4.045c0,1.411,0.282,1.976,0.094,3.104c-0.188,1.223-0.282,4.516-0.47,5.738
	c-0.188,1.129,0.188,1.317,0.188,2.822c-0.094,1.505,0.564,4.421,0.471,6.396s-0.471,3.857-0.564,5.268
	c-0.094,1.411,0.282,1.976,0.188,2.729c-0.095,0.847-0.471,2.634-0.095,3.951c0.377,1.316,0.471,2.069,0.282,3.292
	c-0.188,1.223-0.564,3.575-0.47,5.551c0.094,1.975,0.564,5.644,0.376,6.772s0.094,1.976-0.094,3.575
	c-0.188,1.599-0.282,2.445-0.282,3.668c0,1.224,0.376,1.976,0.282,2.822c-0.095,0.847,0.188,3.293,0.188,4.045
	c0,0.753,0.659,0.659,0.471,1.693c-0.188,1.035-0.376,1.882-0.564,2.729c-0.094,0.847-0.094,3.387-0.188,4.327
	c0,0.94,0.564,0.094,0.282,1.693c-0.282,1.505-0.188,3.95-0.47,5.55c-0.188,1.693-0.377,2.822-0.282,3.669
	c0.094,0.94,0.282,3.574,0.47,5.174c0.188,1.693,0.282,1.599,0.282,3.292s-0.094,2.258-0.094,3.575c0,1.316,0,1.693-0.188,3.01
	c-0.188,1.317-0.188,1.506-0.282,2.916c-0.094,1.411,0.564,4.233,0.377,5.833c-0.094,1.599,0.094,5.268,0,6.961
	s-0.188,3.387-0.188,4.985c0,1.693,0.376,1.976,0.282,2.822c-0.094,0.753,0.376,1.506,0.188,2.634
	c-0.188,1.129-0.659,5.08-0.564,7.056c0,1.976,0.376,5.55,0.188,7.714c-0.188,2.163,0.281,1.976,0.094,3.198
	c-0.188,1.223,0.094,4.421,0,6.585s0.188,4.421,0.094,6.773c-0.094,2.352-0.188,3.292-0.376,4.421
	c-0.188,1.129-0.377,4.14-0.282,5.55c0,1.411,0,2.258-0.188,3.104c-0.094,0.847,0.376,1.411-0.188,1.224
	c-0.658-0.282-1.223-0.188-1.599-0.095c-0.376,0.095-0.564,0.564-1.317,0.471c-0.752-0.094-1.693,0-1.976,0.282
	c-0.282,0.376-1.034,1.034-1.692,0.658c-0.659-0.376,0-0.471-1.129-0.471s-1.693,0.659-2.164,0.753
	c-0.564,0.094-1.035-0.188-1.787,0.094c-0.753,0.282-0.847,1.035-2.07,0.847c-1.223-0.188-2.445-0.376-3.01-0.188
	c-0.564,0.188-1.317,0.094-1.693,0.658c-0.282,0.564-0.376,0.282-1.223,0.847s-1.976,0.564-1.976,0.564s-1.6-0.564-2.446-0.282
	c-0.846,0.282-1.129,0.564-1.316,1.223c-0.094,0.564,0,0.564-1.223,0.471c-1.129-0.188-2.07,0.094-2.822,0.282
	c-0.753,0.188-0.847,0.282-2.352,0c-1.506-0.282-1.6-0.659-2.54-0.188s-1.505,0.564-2.822,1.223
	c-1.317,0.753-2.352,1.693-3.011,2.54c-0.658,0.847,0.095-0.658-1.881,1.129c-1.976,1.788-2.729,0.188-3.198,0.095
	c-0.471-0.095-1.411-0.188-1.6-0.188s-0.564,0.376-0.847,0.658c-0.188,0.188-0.471,0.847-1.505,1.035
	c-1.035,0.188-1.035-0.095-2.446-0.095c-1.316,0-2.069,0.377-3.01,0.471c-0.94,0-1.129-0.376-2.446,0
	c-1.223,0.471-1.976,0.564-2.728,0.471c-0.658-0.095-0.377,1.129-1.129,1.034c-0.753-0.094-1.317,0.188-2.822,0
	c-1.505-0.282-1.976-0.47-3.01-0.47c-1.035,0.094-1.317,0.564-2.258,0.658c-0.941,0.094-1.317,0.282-2.729,0
	s-1.787,0.564-2.728,0.376c-0.941-0.188-1.693-0.282-2.164-0.188c-0.471,0.094-1.034,0.658-2.54,0.564
	c-1.505-0.095-2.258-0.847-3.292-1.035c-1.035-0.188-1.505,0.188-2.446,0c-0.94-0.188-1.505-0.94-2.445-0.94
	c-1.035,0-1.882-0.095-2.729-0.095s-2.634-0.47-4.327-0.752c-1.693-0.188-2.258-0.471-3.574-0.376
	c-1.317,0.094-1.6,0.563-2.634,0.376c-1.035-0.188-1.788-0.659-3.481-0.847c-1.692-0.188-2.163-0.282-3.198,0
	c-0.94,0.282-3.669,0-3.763,0.094c-0.094,0-2.258,0.377-3.387,0.188s-0.847,0.282-1.976,0.564s-1.975,0.94-3.01,0.847
	c-0.94-0.188-1.976-0.471-2.916-0.564c-0.941-0.094-3.293,0.282-4.704,0.094s-2.069-0.282-3.01-0.564
	c-1.035-0.188-1.787,0-3.104-0.094c-1.223-0.094-1.411,0-2.634-0.188s-1.411,0.282-2.258,0.471c-0.847,0.094-1.882,0-3.198-0.095
	c-1.317-0.094-2.258-0.281-3.293,0c-1.034,0.283-1.693-0.281-2.728-0.094c-1.035,0.188-2.258,0.471-3.011,0.377
	c-0.752-0.095-2.069,0.281-3.104,0.281c-1.035,0-1.693,0.753-3.764,0.471c-2.069-0.282-1.693-0.188-3.104-0.376
	c-1.411-0.188-1.6-0.847-2.635-1.035c-1.034-0.188-1.129-0.658-2.634-0.94s-2.163-0.658-2.916-0.564
	c-0.753,0.188-1.317,0.753-2.258,0.658c-0.847-0.094-1.505-0.094-2.352-0.094s-0.188,0.847-1.411,0.658
	c-1.316-0.188-2.163,0.095-2.634,0.282c-0.471,0.188-1.317,0.564-3.293,0.377c-1.975-0.188-2.352,0.282-3.763,0.094
	c-1.316-0.188-2.163,0.282-3.574,0.094c-1.411-0.188-2.352-0.376-2.916-0.47c-0.564-0.095-4.422-1.224-6.867-1.035
	c-2.446,0.188-2.634-0.094-4.14-0.376c-1.505-0.282-0.94,0.658-2.069,0.47c-1.129-0.188-1.787-0.47-2.728-0.564
	c-0.941-0.188-0.564,0.282-2.353,0.377c-1.787,0.094-1.881,0.376-3.763-0.282c-1.881-0.659-1.976,0.752-3.574,0.564
	c-1.693-0.188-2.352-0.188-3.387-0.377c-0.94-0.188-3.669,0-5.08,0.095c-1.411,0.094-1.692,0.188-3.198-0.095
	c-1.505-0.282-1.787,0-3.292-0.094c-1.411-0.094-1.882,0.376-3.011,0s-1.505,0.564-2.445,0.376
	c-0.941-0.188-0.377,0.377-1.976-0.282c-1.6-0.658-1.787-0.564-2.634-0.376s-0.471,0.94-1.787,0.753
	c-1.317-0.188-2.446-0.471-3.199-0.564c-0.752-0.095-1.599,0.658-2.916,0.376c-1.411-0.188-2.258-0.471-2.916-0.564
	s0.282,0.658-1.505,0.564c-1.788-0.188-2.54-0.753-3.48-0.753c-0.941,0-1.317-0.658-2.07,0.095c-0.752,0.752-0.564,0.94-2.352,0.658
	c-1.881-0.282-2.822,0-3.856-0.188c-0.941-0.188-3.104,0.282-3.763,0.095c-0.753-0.188-2.822-0.659-4.327-0.941
	c-1.506-0.282-2.258,0.471-3.669,0.188s-1.317,0.282-3.011,0s-1.881,0.094-3.763-0.188s-2.258,0.095-3.951,0.282
	c-1.693,0.188-1.881,0.095-3.763,0.188c-1.881,0-2.163,1.035-3.763,0.847c-1.693-0.282-3.01-1.411-3.48-0.376
	c-0.471,0.94-0.658,1.505-1.411,1.693c-0.753,0.188-1.223,0.47-1.6,0.94c-0.376,0.47-0.47,1.034-1.599,0.847
	c-1.129-0.188-1.505-0.282-2.916-0.188c-1.411,0.095-4.233-0.094-5.08-0.094c-0.94,0-1.882,0.094-2.916,0.376
	c-1.035,0.282-1.6,1.035-2.258,1.411c-0.564,0.376-1.035,0.471-2.164,0.282c-1.128-0.188-1.692,0-2.821,0.188
	c-1.129,0.188-0.941,0-3.104-0.377c-2.164-0.376-2.258,0.564-3.857,0.377c-1.599-0.282-2.258-0.659-4.232-0.377
	c-1.976,0.282-2.822-0.658-4.233-0.376s-1.976,0.847-3.575,0.471c-1.599-0.377-2.445-0.471-3.386,0.188
	c-0.941,0.659-1.976,1.882-3.481,1.6c-1.505-0.282-2.821-0.847-4.139-1.035c-1.317-0.094-3.763,0.564-5.456,0.282
	s-2.54-1.034-3.857-0.658c-1.41,0.376-1.128-0.282-2.257-0.471c-1.129-0.188-1.693,0.095-2.54,0.188
	c-0.753,0.094-1.129,0.188-2.352,0c-1.223-0.188-1.317,0-2.728,0.094c-1.411,0.095-1.881,0.471-2.634,0.377
	c-0.752-0.095-2.634-0.188-3.857,0c-1.223,0.188-2.07,0.188-3.01,0.658c-0.941,0.471-2.352,0.188-3.387,0.094
	c-1.035-0.188-1.787-0.094-2.634,0.095c-0.847,0.188-2.54,0.282-3.575,0.094c-1.129-0.188-1.881,0.282-3.763-0.094
	c-1.881-0.282-2.728-0.941-3.669-0.659c-0.94,0.282-0.847,0.941-2.257,0.659c-1.411-0.188-2.446-0.377-3.951,0
	c-1.505,0.376-2.916-0.282-3.857-0.282c-1.035,0.094-1.505,0.658-2.446,0.564c-0.941-0.095-3.857-1.224-5.833-0.564
	c-1.975,0.658-2.634,0-4.233,0.188c-1.505,0.188-3.01,0-3.763-0.094c-0.753-0.094-0.847-0.564-2.54-0.564s-1.788-0.471-3.951-0.471
	c-2.257-0.094-2.916-0.188-4.045-0.376s0.188-0.94-1.129-1.129c-1.223-0.188-1.599-0.658-2.822-0.282
	c-1.223,0.377-2.54,0.658-3.951,0.282c-1.317-0.376-2.258-0.47-3.198-0.658c-0.941-0.188,0.847-1.223-1.317-1.223
	c-2.164,0-3.292,0.658-4.704,0.564c-1.411-0.095-3.01-0.188-4.233-0.282c-1.223-0.095-1.881,0.47-2.446,0.564
	c-0.564,0-1.317,0.752-2.728,0.658s-1.599-0.377-3.857,0c-2.258,0.376-3.668,0.282-4.609,0.376c-0.94,0.095-1.787,0.471-3.104,0.282
	c-1.317-0.188-2.069-0.188-3.01-0.282c-0.941-0.188-4.516,0.095-5.55,0c-1.035,0-2.07-0.094-3.575,0.188
	c-1.599,0.188-3.01-0.753-4.421-0.282c-1.411,0.47-2.069,0.282-2.822,0.188c-0.752-0.095-0.94,0.094-1.693,0
	c-0.847-0.095-1.317,0.094-2.728-0.095c-1.317-0.188-1.976-0.47-2.728-0.564c-0.753-0.094-3.387-0.188-4.233-0.188
	s-2.352,0.188-4.327-0.188c-2.069-0.282-0.941-0.471-3.198-0.564c-2.258-0.094-2.54-0.188-4.609-0.188
	c-2.07,0-5.08-0.658-7.62-0.094c-2.54,0.471-2.352,0-4.703-0.094c-2.258-0.095-4.233,0.282-7.149,0
	c-2.917-0.282-4.986-0.564-6.585-0.377c-1.599,0.188-2.446,0.095-3.198,0c-0.753-0.094,0.846-1.034-0.941-1.316
	c-1.788-0.282-3.292-1.223-5.55-0.659c-2.257,0.564-1.693,0.564-3.48,0.282c-1.881-0.282-3.387-0.94-3.951-0.47
	c-0.564,0.47-0.564,0.564-2.069,0.376c-1.505-0.282-2.258-0.094-2.258-0.094s0-1.129-0.188-2.634c-0.188-1.506,0-2.54,0.188-3.575
	c0.188-0.94,0-0.847-0.376-2.258c-0.376-1.411-0.094-2.258,0-4.327c0.094-2.069-0.471-2.069-0.282-3.48
	c0.188-1.316,0.752,0.376,0.564-1.316c-0.094-1.693,0-2.164,0-2.729s-0.376,0.188-0.376-1.317c0-1.505,0-3.856,0-5.079
	c0-1.224-0.094-4.422,0.094-6.491c0.188-2.164-0.471-5.645-0.282-7.056c0.188-1.316-0.188-8.654,0-10.065
	c0.188-1.411,0.282-2.445,0.376-2.916c0.094-0.47-0.658-0.847-0.47-2.352c0.282-1.505,0.376-3.104,0.376-4.045
	c-0.094-0.94-0.564-2.258-0.376-2.916c0.094-0.564,0-11.289,0.188-14.017c0.188-2.729,0.376-5.174,0.188-6.679
	c-0.094-1.6-0.188-2.164-0.188-2.822c0-0.659,0-11.665,0.094-13.829c0.094-2.069,0.47-9.783,0.282-11.946
	c-0.188-2.164-0.376-2.258-0.188-3.669c0.188-1.411-0.659-6.209-0.282-8.843c0.47-2.634,0.094-9.595,0.282-11.57
	c0.188-2.069,0.376-4.892,0.376-5.645c-0.094-0.752-1.223-2.445-0.847-4.892c0.376-2.445,0-4.139,0.094-5.55
	s0.282-7.149,0.282-9.031c0-1.881-0.564-8.56-0.282-10.253s0.188-3.293,0.094-5.362c-0.094-2.069-0.753-5.645,0.094-12.605
	c0.941-6.961,0.282-14.11,0.282-16.462c0-2.446-0.658-5.927-0.376-8.091c0.282-2.163,0.094-6.961,0.188-8.372
	s-0.376-9.783-0.188-11.947c0.188-2.163,0.188-10.348,0.094-12.041c0-1.693,0.094-14.392,0.188-16.838
	c0.094-2.352-0.659-10.254-0.376-11.947c0.282-1.693,0.47-16.086,0.847-18.908c0.376-2.822-0.564-6.961-0.659-8.843
	c-0.094-1.881-1.787-5.833-0.094-16.556c1.693-10.724-1.599-5.55,0.188-16.462c1.788-10.912-1.129-2.07-0.188-12.135
	c0.94-10.065,0.094-15.427,0.282-18.344c0.188-2.916-0.282-14.487-0.094-15.615c0.188-1.129-0.376-10.818-0.094-12.982
	c0.188-2.164-0.188-22.765-0.094-25.493c0.094-2.634,0.188-18.814,0.188-19.849s0.282-9.595,0.188-11.194
	c-0.094-1.693-0.47-12.982-0.282-15.239c0.094-2.258,0.094-19.661,0.094-21.636C195.484,42.332,195.202,35.088,195.579,33.395z"/>
<g opacity="0.3">
	
		<path opacity="0.3" fill="#FFFFFF" stroke="#000000" stroke-width="1.2963" stroke-miterlimit="10" enable-background="new    " d="
		M195.579,83.252c0,0,334.984,1.223,340.722,1.223s223.323,0.847,223.323,0.847"/>
	
		<path opacity="0.3" fill="#FFFFFF" stroke="#000000" stroke-width="1.2963" stroke-miterlimit="10" enable-background="new    " d="
		M194.732,113.543c0,0,334.984,1.223,340.722,1.223s223.323,0.847,223.323,0.847"/>
	
		<path opacity="0.3" fill="#FFFFFF" stroke="#000000" stroke-width="1.2963" stroke-miterlimit="10" enable-background="new    " d="
		M195.767,142.987c0,0,334.984,1.223,340.723,1.223s223.322,0.847,223.322,0.847"/>
	
		<path opacity="0.3" fill="#FFFFFF" stroke="#000000" stroke-width="1.2963" stroke-miterlimit="10" enable-background="new    " d="
		M195.673,173.842c0,0,333.949,0.188,339.688,0.282c5.738,0,223.322,0.847,223.322,0.847"/>
	
		<path opacity="0.3" fill="#FFFFFF" stroke="#000000" stroke-width="1.2963" stroke-miterlimit="10" enable-background="new    " d="
		M195.673,204.697c0,0,333.949,0.188,339.688,0.282c5.738,0,224.169-0.188,224.169-0.188"/>
	
		<path opacity="0.3" fill="#FFFFFF" stroke="#000000" stroke-width="1.2963" stroke-miterlimit="10" enable-background="new    " d="
		M196.896,234.987c0,0,333.949,0.188,339.688,0.282c5.738,0,224.17-0.188,224.17-0.188"/>
	
		<path opacity="0.3" fill="#FFFFFF" stroke="#000000" stroke-width="1.2963" stroke-miterlimit="10" enable-background="new    " d="
		M196.143,265.372c0,0,333.95,0.188,339.688,0.282c5.738,0,224.169-0.188,224.169-0.188"/>
	
		<path opacity="0.3" fill="#FFFFFF" stroke="#000000" stroke-width="1.2963" stroke-miterlimit="10" enable-background="new    " d="
		M194.544,295.568c0,0,333.949,0.188,339.688,0.282c5.738,0,225.769-0.658,225.769-0.658"/>
	
		<path opacity="0.3" fill="#FFFFFF" stroke="#000000" stroke-width="1.2963" stroke-miterlimit="10" enable-background="new    " d="
		M195.391,325.766c0,0,333.949,0.188,339.688,0.281c5.738,0,225.769-0.658,225.769-0.658"/>
	
		<path opacity="0.3" fill="#FFFFFF" stroke="#000000" stroke-width="1.2963" stroke-miterlimit="10" enable-background="new    " d="
		M194.544,356.526c0,0,333.949,0.188,339.688,0.282c5.738,0,225.769-0.659,225.769-0.659"/>
	
		<path opacity="0.3" fill="#FFFFFF" stroke="#000000" stroke-width="1.2963" stroke-miterlimit="10" enable-background="new    " d="
		M193.792,386.816c0,0,333.949,0.188,339.687,0.282c5.738,0,225.769-0.658,225.769-0.658"/>
	
		<path opacity="0.3" fill="#FFFFFF" stroke="#000000" stroke-width="1.2963" stroke-miterlimit="10" enable-background="new    " d="
		M195.108,417.107c0,0,333.949,0.188,339.688,0.282c5.738,0,225.769-0.658,225.769-0.658"/>
	
		<path opacity="0.3" fill="#FFFFFF" stroke="#000000" stroke-width="1.2963" stroke-miterlimit="10" enable-background="new    " d="
		M195.861,447.68c0,0,331.879,0.188,337.618,0.282c5.738,0,226.333-1.692,226.333-1.692"/>
	
		<path opacity="0.3" fill="#FFFFFF" stroke="#000000" stroke-width="1.2963" stroke-miterlimit="10" enable-background="new    " d="
		M196.049,477.406c0,0,331.88,0.188,337.618,0.282c5.738,0,226.333-1.693,226.333-1.693"/>
	
		<path opacity="0.3" fill="#FFFFFF" stroke="#000000" stroke-width="1.2963" stroke-miterlimit="10" enable-background="new    " d="
		M195.955,508.262c0,0,331.88,0.188,337.618,0.282c5.738,0,226.521-2.917,226.521-2.917"/>
</g>
<path opacity="0.3" enable-background="new    " d="M262.274,18.344l-0.188,518.045l1.129,0.188l0.658-518.42
	c0,0-0.188-0.094-0.847-0.094C262.462,18.062,262.274,18.344,262.274,18.344z"/>
<path opacity="0.3" enable-background="new    " d="M266.226,17.874l-0.471,518.891l1.129-0.094l0.941-518.892
	c0,0-0.282,0.094-0.847,0.094C266.319,17.779,266.226,17.874,266.226,17.874z"/>
</svg>
